<svg width="12" height="12" viewBox="0 0 12 12" fill="none" xmlns="http://www.w3.org/2000/svg">
<path opacity="0.3" d="M6.00013 0.166504C2.78013 0.166504 0.166504 2.78013 0.166504 6.00013C0.166504 9.22013 2.78013 11.8338 6.00013 11.8338C9.22013 11.8338 11.8338 9.22013 11.8338 6.00013C11.8338 2.78013 9.22013 0.166504 6.00013 0.166504ZM6.00013 8.9165C5.679 8.9165 5.4165 8.654 5.4165 8.33375V6.00013C5.4165 5.679 5.679 5.4165 6.00013 5.4165C6.32125 5.4165 6.58375 5.679 6.58375 6.00013V8.33375C6.58375 8.654 6.32125 8.9165 6.00013 8.9165ZM6.58375 4.25013H5.4165V3.08375H6.58375V4.25013Z" fill="white"/>
</svg>
