<svg width="20" height="20" viewBox="0 0 20 20" fill="none" xmlns="http://www.w3.org/2000/svg">
<g clip-path="url(#clip0_1650_1777)">
<g clip-path="url(#clip1_1650_1777)">
<g clip-path="url(#clip2_1650_1777)">
<path d="M10.0002 18.7694C14.8433 18.7694 18.7694 14.8433 18.7694 10.0002C18.7694 5.15708 14.8433 1.23096 10.0002 1.23096C5.15708 1.23096 1.23096 5.15708 1.23096 10.0002C1.23096 14.8433 5.15708 18.7694 10.0002 18.7694Z" fill="url(#paint0_radial_1650_1777)" stroke="#F7941D" stroke-width="2"/>
<path d="M14.2816 10.4185L14.277 10.4093L14.2762 10.4077L14.267 10.3793V10.3777H14.2662V10.3762H14.2655V10.3746L14.2639 10.3731C14.1608 10.0277 13.9562 9.72156 13.677 9.49464L13.6762 9.49387L13.6508 9.47387L13.6393 9.46541L13.6316 9.45926L13.6278 9.45618L13.6201 9.4508L13.6162 9.44772L13.6085 9.44233L13.6047 9.43926L13.597 9.4331L13.5924 9.43003L13.5847 9.42387L13.5801 9.42156L13.5708 9.41541L13.5662 9.4131L13.5608 9.40541L13.5562 9.40156L13.5478 9.39541L13.5432 9.39233L13.5339 9.38618L13.5293 9.3831L13.5201 9.37695L13.5155 9.37387L13.5062 9.36695L13.5016 9.36387L13.4908 9.35772L13.4862 9.35464L13.4762 9.34849L13.4716 9.34464L13.4616 9.33849L13.457 9.33541L13.4462 9.32926L13.4408 9.32618L13.4308 9.32003L13.4255 9.31695L13.4147 9.31079L13.4093 9.30849L13.3978 9.30156L13.3924 9.29849L13.3808 9.29233L13.3755 9.28926L13.3639 9.28233L13.3578 9.27926L13.347 9.27233L13.3408 9.26849L13.3285 9.26233L13.3224 9.25926L13.3108 9.2531L13.3032 9.24849L13.3024 9.24772L13.2839 9.23772C13.0324 9.10849 12.7608 9.02233 12.4808 8.98387C12.5593 8.89926 12.6316 8.80926 12.6962 8.71387L12.7062 8.69849H12.707L12.7116 8.69079L12.7185 8.68003L12.7216 8.67541L12.7278 8.66541L12.7308 8.66079L12.737 8.65079L12.7408 8.64541L12.747 8.63541L12.7501 8.6308L12.7562 8.62079L12.7601 8.61618L12.7655 8.60618L12.7685 8.60156L12.7739 8.59156L12.777 8.58695L12.7824 8.57772L12.7847 8.5731L12.7901 8.5631L12.7932 8.55926L12.7978 8.55003L12.8001 8.54541L12.8047 8.53618L12.8078 8.53156L12.8124 8.52233L12.8147 8.51772L12.8201 8.50926L12.8224 8.50464L12.8278 8.49695L12.8308 8.49233L12.8347 8.48387L12.8378 8.47926L12.8424 8.47156L12.8439 8.46772L12.8485 8.45926L12.8501 8.45541L12.8547 8.44772L12.8562 8.4431L12.8608 8.43541L12.8624 8.43079L12.8662 8.4231L12.8685 8.41926L12.8716 8.41156L12.8739 8.40772L12.877 8.40003L12.8793 8.39541L12.8832 8.38695L12.8885 8.37541L12.8993 8.34849H12.9001C13.0208 8.05079 13.0493 7.72464 12.9816 7.41156V7.41079L12.9801 7.40926V7.40772L12.9793 7.40695L12.9785 7.40618V7.40541L12.9778 7.40464L12.9716 7.37849V7.37618L12.9708 7.37464L12.967 7.36849L12.9578 7.33079C12.9555 7.31926 12.9516 7.30618 12.9478 7.29464L12.9432 7.28618V7.28464L12.9355 7.25926H12.9347V7.25772H12.9339L12.9332 7.25618L12.9324 7.25464C12.8401 6.94695 12.6585 6.67464 12.4093 6.47233V6.47156L12.3862 6.45387L12.377 6.44618L12.3693 6.44079L12.3655 6.43772L12.3593 6.43233L12.3555 6.42926L12.3485 6.42387L12.3455 6.42156L12.3378 6.41618L12.3339 6.41387L12.3262 6.40772L12.3224 6.40464L12.3147 6.39926L12.3116 6.39618L12.3039 6.39079L12.2993 6.38849L12.2916 6.3831L12.287 6.38003L12.2793 6.37464L12.2747 6.37233L12.2662 6.36695L12.2616 6.36464L12.2532 6.35926L12.2485 6.35618L12.2408 6.35156L12.2355 6.34849L12.2278 6.34387L12.2232 6.34079L12.2139 6.33464L12.2093 6.33233L12.2008 6.32618L12.1962 6.32387L12.1862 6.31849L12.1824 6.31541L12.1724 6.31003L12.1678 6.30695L12.1578 6.30156L12.1532 6.29849L12.1432 6.29233L12.1385 6.28926L12.1285 6.2831L12.1232 6.28003L12.1124 6.27387L12.107 6.2708L12.0962 6.26541L12.0908 6.26233L12.0801 6.25618L12.0724 6.2531L12.0716 6.25233L12.0555 6.2431C11.5747 5.99387 10.9647 5.91849 10.3508 6.07618L10.1908 6.11695L9.78623 4.54541L8.85008 4.78541L9.25238 6.35233L8.50315 6.54464L8.10008 4.9831L7.16392 5.22233L7.567 6.78926L5.63623 7.28618L5.89315 8.28464L6.67085 8.08464C6.79469 8.0531 6.92623 8.07156 7.03623 8.13618C7.14623 8.20079 7.22546 8.30695 7.25777 8.43079L8.33777 12.6323C8.38161 12.8039 8.27777 12.9785 8.107 13.0239L7.42469 13.1993L7.46469 14.3862L9.39315 13.8908L9.80085 15.4546L10.7362 15.2139L10.3332 13.6462L11.0824 13.4539L11.4855 15.0216L12.4208 14.7808L12.0162 13.2069L12.4055 13.1062C13.0978 12.9285 13.657 12.5223 13.9955 12.0169L14.007 12L14.0132 11.9923L14.0208 11.98L14.0239 11.9739L14.0316 11.9623L14.0355 11.9562L14.0416 11.9446L14.0455 11.9393L14.0524 11.9277L14.0547 11.9223L14.0616 11.9108L14.0647 11.9054L14.0708 11.8939L14.0739 11.8885L14.0801 11.8777L14.0824 11.8723L14.0885 11.8608L14.0916 11.8554L14.0978 11.8454L14.1008 11.84L14.107 11.83L14.1093 11.8246L14.1155 11.8146L14.1178 11.8093L14.1232 11.7993L14.1262 11.7939L14.1316 11.7839L14.1339 11.7793L14.1393 11.7693L14.1416 11.7639L14.1462 11.7546L14.1493 11.75L14.1539 11.7408L14.1562 11.7369L14.1608 11.7269L14.1639 11.7231L14.1685 11.7139L14.1708 11.7093L14.1762 11.7L14.1785 11.6954L14.1832 11.6862L14.1862 11.6816L14.1901 11.6731L14.1924 11.6685L14.1962 11.66L14.1985 11.6554L14.2024 11.6454L14.2085 11.6323C14.2124 11.6223 14.2178 11.6131 14.2208 11.6031V11.6023C14.357 11.2685 14.3885 10.9008 14.3132 10.5485L14.3124 10.5477V10.5469L14.3116 10.5462L14.3108 10.5446L14.3101 10.5431L14.3024 10.5139V10.51H14.3016V10.5085H14.3008V10.5069H14.3001V10.5054H14.2993L14.2985 10.5039L14.2978 10.5023L14.2955 10.4993L14.2855 10.4577L14.2816 10.4193V10.4185ZM8.78162 7.60849C8.94162 7.56772 9.60161 7.40156 9.82008 7.34464C10.1662 7.25618 10.507 7.2908 10.7739 7.41926L10.7816 7.4231L10.7862 7.42464L10.7916 7.42772L10.7939 7.42926L10.7993 7.43156L10.8024 7.4331L10.8078 7.43618L10.8101 7.43772L10.8155 7.4408L10.8185 7.44233L10.8239 7.44464L10.8262 7.44618L10.8324 7.44926L10.8347 7.45079L10.8401 7.45387L10.8424 7.45541L10.8485 7.45772L10.8508 7.45926L10.8562 7.46233L10.8593 7.46387L10.8639 7.46695L10.8662 7.46849L10.8708 7.47233L10.8739 7.4731L10.8785 7.47695L10.8808 7.47849L10.8855 7.4808L10.8878 7.48233L10.8924 7.48464L10.8947 7.48618L10.8993 7.48926L10.9016 7.49079L10.9062 7.4931L10.9085 7.49464L10.9132 7.49695L10.9155 7.49926L10.9193 7.50156L10.9208 7.5031L10.9255 7.50541L10.927 7.50618L10.9308 7.50926L10.9332 7.51003L10.937 7.5131L10.9385 7.51387L10.9424 7.51695L10.9439 7.51772L10.9478 7.5208L10.9539 7.52387C10.9585 7.52695 10.9616 7.5308 10.967 7.5331C11.1032 7.63618 11.2032 7.77926 11.2532 7.9431L11.2539 7.94541L11.2585 7.95849V7.95926L11.2608 7.96387L11.267 7.9831C11.2685 7.9908 11.2701 7.99772 11.2701 8.00464L11.2732 8.00926V8.01003L11.277 8.02387L11.2778 8.02618C11.3132 8.1931 11.2947 8.36695 11.2247 8.5231L11.2185 8.53695L11.2155 8.54387L11.2124 8.54849V8.5508L11.2101 8.55464V8.55695L11.207 8.56079L11.2062 8.5631L11.2032 8.56772V8.57003L11.2001 8.57464V8.57618L11.197 8.58079L11.1962 8.5831L11.1932 8.58772V8.59003L11.1901 8.59387L11.1885 8.59695L11.1862 8.60079L11.1847 8.60387L11.1816 8.60849L11.1808 8.6108L11.1778 8.61541L11.1762 8.61772L11.1732 8.62233L11.1716 8.62541L11.1685 8.63003L11.167 8.63233L11.1639 8.63695L11.1624 8.64003L11.1585 8.64464L11.157 8.64695L11.1539 8.65156L11.1524 8.65464L11.1493 8.65926L11.1478 8.66156L11.1447 8.66618L11.1432 8.66926L11.1393 8.67387L11.1385 8.67618L11.1339 8.68156L11.1324 8.68387L11.1285 8.68926L11.127 8.69156L11.1232 8.69695L11.1216 8.69926L11.1178 8.70464L11.1147 8.70849L11.1093 8.71618C10.937 8.95772 10.6555 9.15233 10.3093 9.24079L9.27238 9.51003L8.78162 7.60849ZM12.4408 10.8293L12.4432 10.8339L12.447 10.8493V10.8508H12.4478V10.8523C12.4855 11.0369 12.4585 11.2277 12.3732 11.3954L12.3647 11.4108L12.3608 11.4177L12.3578 11.4231L12.3562 11.4254L12.3539 11.43L12.3524 11.4323L12.3493 11.4369L12.3485 11.4393L12.3447 11.4439L12.3432 11.4469L12.3401 11.4516L12.3385 11.4539L12.3355 11.4585L12.3339 11.4616L12.3308 11.4662L12.3293 11.4685L12.3255 11.4731L12.3239 11.4762L12.3208 11.4808L12.3193 11.4831L12.3162 11.4885L12.3147 11.4908L12.3116 11.4954L12.3101 11.4977L12.307 11.5031L12.3055 11.5054L12.3008 11.5108L12.2993 11.5131L12.2955 11.5185L12.2939 11.5208L12.2901 11.5269L12.2893 11.5293L12.2855 11.5354L12.2839 11.5377L12.2801 11.5439L12.2778 11.5469L12.2739 11.5531L12.2724 11.5562L12.2678 11.5623L12.2655 11.5654L12.2608 11.5716L12.2585 11.5746L12.2539 11.5808L12.2516 11.5846L12.2478 11.5908L12.2455 11.5939L12.2408 11.6L12.237 11.6039L12.2293 11.6123C12.0216 11.8793 11.6832 12.0993 11.2739 12.2046C11.0162 12.2708 10.2355 12.4754 10.0455 12.5239L9.51469 10.4562C9.70392 10.4069 10.4862 10.21 10.7447 10.1439C11.1539 10.0393 11.5562 10.0685 11.867 10.2016L11.877 10.2054L11.8824 10.2077L11.8901 10.2108L11.8932 10.2116L11.9001 10.2146L11.9032 10.2162L11.9101 10.2193L11.9132 10.22L11.9208 10.2239L11.9232 10.2254L11.9293 10.2285L11.9324 10.23L11.9385 10.2331L11.9416 10.2346L11.9478 10.2377L11.9508 10.2393L11.9562 10.2423L11.9585 10.2439L11.9647 10.2462L11.967 10.2477L11.9724 10.2508L11.9755 10.2523L11.9808 10.2554L11.9832 10.2569L11.9885 10.2593L11.9916 10.2608L11.997 10.2639L11.9993 10.2654L12.0047 10.2685L12.0078 10.27L12.0132 10.2723L12.0155 10.2739L12.0208 10.2769L12.0239 10.2785L12.0285 10.2816L12.0308 10.2831L12.0355 10.2862L12.0385 10.2877L12.0432 10.2916L12.0455 10.2931L12.0501 10.2962L12.0532 10.2977L12.0578 10.3008L12.0601 10.3023L12.0647 10.3046L12.067 10.3062L12.0724 10.31L12.0785 10.3139L12.0939 10.3239C12.2501 10.4293 12.3662 10.5854 12.4224 10.7646L12.4239 10.7677L12.4293 10.7816V10.7823L12.4316 10.7869L12.4378 10.8085C12.4416 10.81 12.4416 10.8185 12.4408 10.8293Z" fill="white"/>
</g>
</g>
</g>
<defs>
<radialGradient id="paint0_radial_1650_1777" cx="0" cy="0" r="1" gradientUnits="userSpaceOnUse" gradientTransform="translate(10.0002 10.0002) scale(8.76923)">
<stop stop-color="#B06000"/>
<stop offset="1" stop-color="#0B2B4D"/>
</radialGradient>
<clipPath id="clip0_1650_1777">
<rect width="20" height="20" fill="white"/>
</clipPath>
<clipPath id="clip1_1650_1777">
<rect width="20" height="20" fill="white"/>
</clipPath>
<clipPath id="clip2_1650_1777">
<rect width="20" height="20" fill="white"/>
</clipPath>
</defs>
</svg>
