<svg width="21" height="21" viewBox="0 0 21 21" fill="none" xmlns="http://www.w3.org/2000/svg">
<path d="M10.125 19.875C15.0956 19.875 19.125 15.8456 19.125 10.875C19.125 5.90444 15.0956 1.875 10.125 1.875C5.15444 1.875 1.125 5.90444 1.125 10.875C1.125 15.8456 5.15444 19.875 10.125 19.875Z" fill="#000A16" stroke="url(#paint0_linear_1647_1709)" stroke-width="2"/>
<path d="M10.1329 4.89014L15.5419 13.8744H4.72168L10.1329 4.89014ZM10.1329 7.85789L7.39018 12.3973H12.8723L10.1318 7.85789H10.1329Z" fill="#0B76FF"/>
<g style="mix-blend-mode:lighten">
<path d="M10.1293 16.8555L4.72028 7.87122L15.5405 7.87122L10.1293 16.8555ZM10.1293 13.8877L12.8732 9.34834H7.39103L10.1293 13.8877Z" fill="#00E3C2"/>
</g>
<path d="M7.13457 3.69336L16.3112 8.76936L6.93994 14.1806L7.13457 3.69336ZM8.61732 6.26511L8.51269 11.5672L13.2602 8.82561L8.61732 6.26511Z" fill="#25C0FF"/>
<g style="mix-blend-mode:lighten">
<path d="M13.1145 14.0562L3.93805 8.98012L13.3087 3.57L13.1145 14.0562ZM11.6306 11.4861L11.7372 6.18291L6.98954 8.92398L11.6306 11.4861Z" fill="#FF51FF"/>
</g>
<defs>
<linearGradient id="paint0_linear_1647_1709" x1="10.125" y1="1.875" x2="10.125" y2="19.875" gradientUnits="userSpaceOnUse">
<stop stop-color="#A17DFF"/>
<stop offset="1" stop-color="#6F7FFF"/>
</linearGradient>
</defs>
</svg>
