<svg width="20" height="20" viewBox="0 0 20 20" fill="none" xmlns="http://www.w3.org/2000/svg">
<g clip-path="url(#clip0_1647_1690)">
<g clip-path="url(#clip1_1647_1690)">
<path d="M10.0002 18.7694C14.8433 18.7694 18.7694 14.8433 18.7694 10.0002C18.7694 5.15708 14.8433 1.23096 10.0002 1.23096C5.15708 1.23096 1.23096 5.15708 1.23096 10.0002C1.23096 14.8433 5.15708 18.7694 10.0002 18.7694Z" fill="url(#paint0_radial_1647_1690)" stroke="#FCAF38" stroke-width="2"/>
<mask id="mask0_1647_1690" style="mask-type:alpha" maskUnits="userSpaceOnUse" x="5" y="4" width="9" height="12">
<path d="M5.4541 4.54639H13.6356V15.4556H5.4541V4.54639Z" fill="white"/>
</mask>
<g mask="url(#mask0_1647_1690)">
<path fill-rule="evenodd" clip-rule="evenodd" d="M11.761 8.91562C11.4964 9.98254 9.86333 9.44023 9.33333 9.30793L9.80102 7.42023C10.3303 7.55331 12.0364 7.801 11.761 8.91485M11.4695 11.9602C11.1795 13.1333 9.21795 12.4995 8.58179 12.3402L9.09718 10.2595C9.73333 10.4195 11.7726 10.7364 11.4695 11.9595M13.6141 8.93177C13.7833 7.78562 12.9172 7.17023 11.7326 6.75869L12.1172 5.20562L11.1787 4.97023L10.8049 6.48177C10.5579 6.42023 10.3049 6.36177 10.0533 6.30408L10.431 4.78177L9.49256 4.54639L9.10795 6.09869C8.9041 6.05177 8.70333 6.00562 8.50949 5.95639V5.95177L7.21641 5.62639L6.96641 6.63562C6.96641 6.63562 7.66256 6.79716 7.64795 6.80639C8.02795 6.90254 8.09641 7.15562 8.08487 7.35639L7.64718 9.12562C7.67333 9.13177 7.70795 9.14177 7.74487 9.15639L7.64564 9.13177L7.03256 11.6102C6.98641 11.7264 6.86795 11.9002 6.60179 11.8348C6.61102 11.8487 5.92026 11.6633 5.92026 11.6633L5.4541 12.7456L6.67564 13.0525C6.90256 13.1095 7.12487 13.1695 7.34487 13.2256L6.95564 14.7964L7.89333 15.0318L8.27795 13.4779C8.53333 13.5472 8.78179 13.6125 9.02564 13.6733L8.64256 15.2195L9.58102 15.4556L9.96872 13.8879C11.5687 14.1933 12.7718 14.0702 13.2787 12.6125C13.6864 11.4387 13.2579 10.7618 12.4164 10.3202C13.0295 10.1772 13.491 9.771 13.6149 8.93177" fill="white"/>
</g>
</g>
</g>
<defs>
<radialGradient id="paint0_radial_1647_1690" cx="0" cy="0" r="1" gradientUnits="userSpaceOnUse" gradientTransform="translate(10.0002 10.0002) scale(8.76923)">
<stop stop-color="#A36F1E"/>
<stop offset="1" stop-color="#0B2B4D"/>
</radialGradient>
<clipPath id="clip0_1647_1690">
<rect width="20" height="20" fill="white"/>
</clipPath>
<clipPath id="clip1_1647_1690">
<rect width="20" height="20" fill="white"/>
</clipPath>
</defs>
</svg>
