<svg width="55" height="55" viewBox="0 0 55 55" fill="none" xmlns="http://www.w3.org/2000/svg">
<g opacity="0.3">
<path d="M15.8954 48.5738L15.895 48.5733L2.29736 34.987C2.29731 34.987 2.29726 34.987 2.29722 34.9869C2.29712 34.9868 2.29702 34.9867 2.29692 34.9866C1.23431 33.9235 1.23436 32.1971 2.29707 31.1341C2.29716 31.134 2.29726 31.1339 2.29736 31.1338L22.7619 10.6806L22.7619 10.6806L22.7674 10.6751C23.6186 9.81543 24.7837 9.34064 26.0063 9.35762L26.0064 9.35762L38.2604 9.52703L38.2609 9.52704C39.9526 9.5499 41.3163 10.9106 41.344 12.6011V12.6239V13.6781L42.3359 14.0352C42.8905 14.2348 43.4422 14.4406 43.9878 14.6652C46.9801 15.9078 49.5552 17.56 51.2816 19.2864L51.3324 19.3372L51.3784 19.3832C52.7519 20.7834 53.2594 21.9085 53.426 22.6934C53.5914 23.4726 53.4466 24.0358 53.3085 24.3648L53.3064 24.3697C53.1661 24.7071 52.8652 25.2087 52.1958 25.6402C51.5207 26.0755 50.3648 26.5075 48.4042 26.5177L48.4023 26.5177C46.8106 26.5279 44.9533 26.2509 43.0002 25.7036L41.6963 25.3382L41.1999 26.5982C40.9802 27.1558 40.6412 27.6813 40.2022 28.1203L19.7486 48.5738C18.6855 49.6369 16.9585 49.6369 15.8954 48.5738ZM50.8731 19.6836C49.1526 17.9631 46.5697 16.3564 43.7752 15.1873C43.7118 15.1595 43.654 15.1357 43.6121 15.1184L43.6071 15.1163C43.5569 15.0957 43.5274 15.0834 43.4984 15.0705L41.357 14.1188L41.3893 16.4619L41.4265 19.1682C40.2121 18.6431 39.0702 18.0326 38.0624 17.3823C38.0007 16.197 37.5164 15.0234 36.6087 14.1156C34.6563 12.1633 31.4929 12.1633 29.5406 14.1156C27.5914 16.0648 27.585 19.2282 29.5293 21.1725C31.2308 22.874 33.8522 23.0926 35.7901 21.8282C37.0671 22.63 38.4559 23.2688 39.9194 23.8831L39.9227 23.8845C43.1953 25.249 46.0005 25.7934 48.0997 25.8547C49.1424 25.8851 50.0572 25.7977 50.7865 25.6031C51.1492 25.5063 51.5137 25.3705 51.8363 25.1757C52.1372 24.994 52.5428 24.6754 52.7637 24.1522C52.9374 23.7416 52.933 23.3292 52.8937 23.0295C52.8507 22.7018 52.7476 22.3662 52.5979 22.0312C52.2987 21.3615 51.7728 20.6024 50.9529 19.7635L50.9469 19.7574L50.9409 19.7514L50.9069 19.7175L50.8731 19.6836L50.8731 19.6836Z" stroke="white" stroke-width="3"/>
<path d="M11.9317 29.005L12.2686 28.6593L12.2697 28.6582L12.2002 28.1798C12.0178 28.2064 11.8664 28.3346 11.8094 28.5092C11.7523 28.6838 11.8002 28.8763 11.9317 29.005ZM11.9317 29.005L14.9453 31.9416L11.9317 29.005ZM21.6785 31.226L21.302 31.593L21.3909 32.1112L21.9256 35.2283L19.126 33.7565L18.6607 33.5119L18.1954 33.7565L15.3962 35.2279L15.9309 32.1107L16.0198 31.5924L15.6432 31.2254L13.3791 29.0191L16.5082 28.5648L17.0285 28.4892L17.2612 28.0177L18.6606 25.1818L20.0601 28.0177L20.2928 28.4892L20.8131 28.5648L23.9424 29.0191L21.6785 31.226ZM19.1235 24.2437C19.1234 24.2439 19.1233 24.2441 19.1232 24.2443L19.1235 24.2438L19.1235 24.2437ZM18.198 24.2443C18.1979 24.2441 18.1978 24.2439 18.1978 24.2437L18.1978 24.2438L18.198 24.2443Z" stroke="white" stroke-width="2"/>
</g>
</svg>
