<svg width="14" height="13" viewBox="0 0 14 13" fill="none" xmlns="http://www.w3.org/2000/svg">
    <path d="M7.00007 1.06332C6.27367 0.395394 5.32288 0.0246892 4.33607 0.0246582C3.81376 0.025202 3.29672 0.129031 2.81469 0.33017C2.33267 0.53131 1.89518 0.825788 1.5274 1.19666C-0.0412649 2.77199 -0.0405983 5.23599 1.52874 6.80466L6.41674 11.6927C6.53007 11.892 6.74874 12.0207 7.00007 12.0207C7.10327 12.0197 7.20479 11.9945 7.29649 11.9471C7.38819 11.8998 7.46751 11.8316 7.52807 11.748L12.4714 6.80466C14.0407 5.23532 14.0407 2.77199 12.4701 1.19399C12.1025 0.823803 11.6653 0.529923 11.1838 0.329247C10.7022 0.128571 10.1858 0.0250579 9.66407 0.0246582C8.67729 0.0248195 7.72654 0.395507 7.00007 1.06332Z" fill="#F93030"/>
    </svg>
    