<svg width="20" height="18" viewBox="0 0 16 16" fill="none" xmlns="http://www.w3.org/2000/svg">
<path d="M1.51173 14.488C1.9895 14.9672 2.55713 15.3473 3.18209 15.6067C3.80706 15.8662 4.47707 15.9997 5.15373 15.9997C5.83039 15.9997 6.50041 15.8662 7.12537 15.6067C7.75033 15.3473 8.31796 14.9672 8.79573 14.488C9.46913 13.818 9.94315 12.9741 10.1649 12.0504C10.3867 11.1268 10.3475 10.1597 10.0517 9.25697C11.9924 7.32599 13.9284 5.39032 15.8597 3.44997C15.9047 3.4081 15.9403 3.35729 15.9645 3.30079C15.9886 3.2443 16.0006 3.18339 15.9997 3.12197V0.468974C16.0016 0.407424 15.99 0.346213 15.9658 0.289579C15.9416 0.232945 15.9054 0.18224 15.8597 0.140974C15.8183 0.0948266 15.7674 0.0582931 15.7103 0.0339357C15.6533 0.00957834 15.5917 -0.00201308 15.5297 -2.56594e-05H12.8767C12.8153 -0.000875952 12.7544 0.0111416 12.6979 0.0352535C12.6414 0.0593655 12.5906 0.0950377 12.5487 0.139974C12.3047 0.374974 12.1267 0.562974 11.8827 0.796974C11.8329 0.846576 11.7952 0.907067 11.7726 0.973696C11.75 1.04032 11.7432 1.11127 11.7527 1.18097C11.7797 1.44397 11.8077 1.64097 11.8357 1.89397C11.4797 1.93097 11.2077 1.95897 10.8427 1.98697C10.735 1.99901 10.6345 2.04734 10.5578 2.12402C10.4811 2.20071 10.4328 2.30119 10.4207 2.40897C10.3927 2.76597 10.3647 3.04697 10.3267 3.40297C10.0737 3.36597 9.87673 3.34697 9.61473 3.31897C9.54988 3.3115 9.48419 3.31783 9.42195 3.33753C9.35972 3.35724 9.30236 3.38989 9.25363 3.43332C9.2049 3.47676 9.16591 3.53001 9.13922 3.58958C9.11252 3.64915 9.09873 3.7137 9.09873 3.77897V4.65597H8.23573C8.11473 4.65597 7.99273 4.68697 7.90773 4.78097C7.47773 5.21197 7.17273 5.50697 6.74173 5.94797C5.83904 5.65219 4.87193 5.613 3.94826 5.83477C3.0246 6.05655 2.18071 6.53058 1.51073 7.20397C1.03155 7.68174 0.651369 8.24937 0.391961 8.87434C0.132553 9.4993 -0.000976563 10.1693 -0.000976562 10.846C-0.000976563 11.5226 0.132553 12.1926 0.391961 12.8176C0.651369 13.4426 1.03155 14.0102 1.51073 14.488H1.51173ZM2.83373 11.178C2.96373 11.0467 3.11846 10.9424 3.28899 10.8713C3.45952 10.8001 3.64246 10.7635 3.82723 10.7635C4.012 10.7635 4.19494 10.8001 4.36547 10.8713C4.536 10.9424 4.69074 11.0467 4.82073 11.178C4.95219 11.308 5.05656 11.4628 5.12779 11.6334C5.19902 11.804 5.23569 11.9871 5.23569 12.172C5.23569 12.3569 5.19902 12.5399 5.12779 12.7105C5.05656 12.8812 4.95219 13.036 4.82073 13.166C4.69074 13.2973 4.536 13.4015 4.36547 13.4727C4.19494 13.5438 4.012 13.5804 3.82723 13.5804C3.64246 13.5804 3.45952 13.5438 3.28899 13.4727C3.11846 13.4015 2.96373 13.2973 2.83373 13.166C2.70242 13.036 2.59818 12.8812 2.52704 12.7107C2.4559 12.5402 2.41928 12.3572 2.41928 12.1725C2.41928 11.9877 2.4559 11.8048 2.52704 11.6342C2.59818 11.4637 2.70242 11.309 2.83373 11.179V11.178Z" fill="#00F6D2"/>
<path d="M1.51171 7.20397C2.18169 6.53057 3.02558 6.05655 3.94924 5.83477C4.8729 5.61299 5.84002 5.65218 6.74271 5.94797C7.17371 5.50697 7.47771 5.21197 7.90871 4.78097C7.99371 4.68697 8.11571 4.65597 8.23671 4.65597H9.09971V3.77797C9.09971 3.49697 9.35271 3.28097 9.61571 3.31797C9.87771 3.34697 10.0747 3.36597 10.3277 3.40297C10.3657 3.04697 10.3937 2.76597 10.4217 2.40897C10.4337 2.30119 10.4821 2.20071 10.5588 2.12402C10.6354 2.04733 10.7359 1.999 10.8437 1.98697C11.2087 1.95897 11.4807 1.93097 11.8367 1.89397C11.8087 1.64097 11.7807 1.44397 11.7527 1.18097C11.7433 1.11119 11.7503 1.04019 11.773 0.973559C11.7958 0.906927 11.8337 0.846478 11.8837 0.796969C12.1277 0.562969 12.3057 0.374969 12.5497 0.140969C12.5915 0.0958513 12.6423 0.0599927 12.6988 0.0357066C12.7553 0.0114206 12.8162 -0.000753614 12.8777 -3.06205e-05H15.5307C15.6617 -3.06205e-05 15.7747 0.0469694 15.8587 0.139969L4.82071 11.18C4.69071 11.0487 4.53598 10.9444 4.36545 10.8733C4.19492 10.8021 4.01198 10.7655 3.82721 10.7655C3.64244 10.7655 3.4595 10.8021 3.28897 10.8733C3.11844 10.9444 2.9637 11.0487 2.83371 11.18C2.7024 11.31 2.59816 11.4647 2.52702 11.6352C2.45588 11.8058 2.41925 11.9887 2.41925 12.1735C2.41925 12.3582 2.45588 12.5412 2.52702 12.7117C2.59816 12.8822 2.7024 13.037 2.83371 13.167L1.51171 14.489C1.03253 14.0112 0.652345 13.4436 0.392938 12.8186C0.13353 12.1936 0 11.5236 0 10.847C0 10.1703 0.13353 9.5003 0.392938 8.87533C0.652345 8.25037 1.03253 7.68274 1.51171 7.20497V7.20397Z" fill="#00F6D2"/>
</svg>
