<svg width="78" height="61" viewBox="0 0 78 61" fill="none" xmlns="http://www.w3.org/2000/svg">
<path d="M21.4429 58.6499C23.743 60.95 27.4767 60.95 29.7768 58.6499L58.3073 30.1194C59.1265 29.3002 59.7567 28.3234 60.1663 27.2837C63.0335 28.0871 65.822 28.5125 68.2796 28.4967C74.3607 28.4652 76.3772 25.8028 77.0389 24.2116C77.7005 22.6362 78.1731 19.3279 73.9038 14.9798C73.8565 14.9325 73.8093 14.8853 73.762 14.838C71.1153 12.1913 67.2714 9.74946 62.9075 7.93775C62.104 7.60691 61.3006 7.30758 60.5129 7.02401V6.97675C60.4656 3.47936 57.6457 0.659388 54.1483 0.612126L37.0551 0.375816C34.7866 0.344308 32.6125 1.22653 31.0214 2.83344L2.47507 31.364C0.174978 33.6641 0.174978 37.3978 2.47507 39.6978L21.4429 58.6499ZM43.4355 10.5844C45.3418 8.67819 48.4296 8.67819 50.3358 10.5844C51.4701 11.7187 51.9269 13.2784 51.7064 14.7435C53.5811 16.0668 55.8182 17.2956 58.2128 18.2881C59.0635 18.6347 59.8827 18.9498 60.6704 19.2176L60.5759 12.3489C60.7177 12.4119 60.8437 12.4592 60.9855 12.5222C64.7192 14.0818 68.0748 16.1929 70.2331 18.3512C70.2646 18.3827 70.2961 18.4142 70.3276 18.4457C72.3757 20.541 72.5962 21.8801 72.4229 22.2897C71.8873 23.5657 66.1371 24.7 57.4093 21.0608C54.8572 19.9896 52.4626 18.6662 50.5248 17.2326C50.4618 17.3114 50.383 17.3902 50.32 17.4689C48.4138 19.3752 45.326 19.3752 43.4198 17.4689C41.5293 15.5784 41.5293 12.4907 43.4355 10.5844Z" fill="#00F6D2"/>
<path d="M40.2176 30.7018L34.8139 35.9693L36.09 43.409C36.1455 43.7343 36.0119 44.0631 35.7447 44.2574C35.5938 44.3676 35.4142 44.4231 35.2346 44.4231C35.0967 44.4231 34.9579 44.3901 34.8312 44.3234L28.1497 40.8108L21.4691 44.3225C21.1776 44.4769 20.8228 44.4517 20.5556 44.2566C20.2884 44.0622 20.1548 43.7334 20.2103 43.4081L21.4864 35.9684L16.0819 30.7018C15.8459 30.471 15.76 30.1258 15.8624 29.8126C15.9647 29.4994 16.2363 29.2695 16.5633 29.2218L24.0317 28.1375L27.3716 21.3692C27.6639 20.7767 28.6355 20.7767 28.9279 21.3692L32.2678 28.1375L39.7361 29.2218C40.0631 29.2695 40.3347 29.4986 40.437 29.8126C40.5394 30.1266 40.4535 30.4702 40.2176 30.7018Z" fill="#FE52FF"/>
<path d="M40.2176 30.7018L34.8139 35.9693L36.09 43.409C36.1455 43.7343 36.0119 44.0631 35.7447 44.2574C35.5938 44.3676 35.4142 44.4231 35.2346 44.4231C35.0967 44.4231 34.9579 44.3901 34.8312 44.3234L28.1497 40.8108L21.4691 44.3225C21.1776 44.4769 20.8228 44.4517 20.5556 44.2566C20.2884 44.0622 20.1548 43.7334 20.2103 43.4081L21.4864 35.9684L16.0819 30.7018C15.8459 30.471 15.76 30.1258 15.8624 29.8126C15.9647 29.4994 16.2363 29.2695 16.5633 29.2218L24.0317 28.1375L27.3716 21.3692C27.6639 20.7767 28.6355 20.7767 28.9279 21.3692L32.2678 28.1375L39.7361 29.2218C40.0631 29.2695 40.3347 29.4986 40.437 29.8126C40.5394 30.1266 40.4535 30.4702 40.2176 30.7018V30.7018Z" stroke="#042548" stroke-width="2"/>
</svg>
