<svg width="20" height="20" viewBox="0 0 20 20" fill="none" xmlns="http://www.w3.org/2000/svg">
<path d="M10 19C14.9706 19 19 14.9706 19 10C19 5.02944 14.9706 1 10 1C5.02944 1 1 5.02944 1 10C1 14.9706 5.02944 19 10 19Z" fill="#000A16" stroke="#527B0B" stroke-width="2"/>
<mask id="mask0_1647_1756" style="mask-type:alpha" maskUnits="userSpaceOnUse" x="3" y="4" width="14" height="12">
<path d="M8.55333 14.5457H5.5205C5.19004 14.5457 4.91571 14.2924 4.89293 13.9627C4.82447 12.972 4.6958 10.9525 4.6958 9.76919C4.6958 8.60212 4.82097 6.74651 4.89008 5.81087C4.91431 5.48278 5.18795 5.23102 5.51692 5.23102H7.54164C7.68472 5.23102 7.8007 5.35455 7.8007 5.49762C7.8007 5.72114 8.06065 5.82748 8.23639 5.68936C8.76859 5.27111 9.55497 4.87842 10.9653 5.23104C12.8163 5.69383 14.6673 7.79852 15.4435 9.23156C16.0497 10.3507 15.6362 12.9631 15.426 14.0537C15.3703 14.3425 15.1157 14.5457 14.8215 14.5457H11.7865C11.5109 14.5457 11.268 14.3664 11.1676 14.1097C10.8169 13.2137 10.4288 12.5587 11.2041 11.6799C12.5769 10.1241 11.7415 8.75413 11.2041 8.39588C10.6668 8.03762 9.17402 7.73907 8.27837 8.27646C7.38273 8.81384 7.56186 10.7817 8.51721 11.3216C9.53425 11.8965 9.30689 13.3881 9.12047 14.1234C9.0553 14.3805 8.81852 14.5457 8.55333 14.5457Z" fill="url(#paint0_linear_1647_1756)" stroke="black" stroke-width="1.89525"/>
</mask>
<g mask="url(#mask0_1647_1756)">
<path d="M8.55333 14.5457H5.5205C5.19004 14.5457 4.91571 14.2924 4.89293 13.9627C4.82447 12.972 4.6958 10.9525 4.6958 9.76919C4.6958 8.60212 4.82097 6.74651 4.89008 5.81087C4.91431 5.48278 5.18795 5.23102 5.51692 5.23102H7.54164C7.68472 5.23102 7.8007 5.35455 7.8007 5.49762C7.8007 5.72114 8.06065 5.82748 8.23639 5.68936C8.76859 5.27111 9.55497 4.87842 10.9653 5.23104C12.8163 5.69383 14.6673 7.79852 15.4435 9.23156C16.0497 10.3507 15.6362 12.9631 15.426 14.0537C15.3703 14.3425 15.1157 14.5457 14.8215 14.5457H11.7865C11.5109 14.5457 11.268 14.3664 11.1676 14.1097C10.8169 13.2137 10.4288 12.5587 11.2041 11.6799C12.5769 10.1241 11.7415 8.75413 11.2041 8.39588C10.6668 8.03762 9.17402 7.73907 8.27837 8.27646C7.38273 8.81384 7.56186 10.7817 8.51721 11.3216C9.53425 11.8965 9.30689 13.3881 9.12047 14.1234C9.0553 14.3805 8.81852 14.5457 8.55333 14.5457Z" fill="url(#paint1_linear_1647_1756)" stroke="black" stroke-width="0.5"/>
<g style="mix-blend-mode:hard-light" opacity="0.5">
<path fill-rule="evenodd" clip-rule="evenodd" d="M9.62592 5.67748L9.62592 5.67747C9.52775 5.35488 9.42942 5.03177 9.3802 4.70102L9.38031 4.70143C9.37254 4.64956 9.44672 4.6236 9.47538 4.66581C9.77291 5.10244 9.92563 5.64479 10.0571 6.15776C10.1409 6.03678 10.3798 6.04909 10.4549 6.20725C10.7749 6.88018 11.013 7.5941 11.2066 8.31343C11.2342 8.41634 11.2641 8.52119 11.2944 8.62744C11.4587 9.20392 11.6348 9.82189 11.5369 10.3982C11.5179 10.5103 11.3505 10.564 11.2861 10.4571C11.0302 10.0328 10.9217 9.52535 10.8151 9.02643C10.7732 8.83059 10.7316 8.63607 10.6815 8.44841C10.6212 8.22239 10.5593 7.99689 10.495 7.77215C10.4719 7.88954 10.4392 8.00425 10.3941 8.11488C10.3355 8.25928 10.1174 8.21573 10.1022 8.06715C10.0411 7.46531 9.94031 6.87109 9.79774 6.28326C9.74854 6.08039 9.68727 5.87907 9.62594 5.67755L9.62594 5.67754L9.62594 5.67753L9.62593 5.67751L9.62593 5.6775L9.62593 5.67749L9.62592 5.67748ZM7.08534 5.87226L7.08006 5.91449C7.07352 5.96723 7.09023 6.0259 7.13504 6.0586C7.24417 6.13801 7.36003 6.20865 7.47581 6.27925L7.47581 6.27925L7.47582 6.27926C7.6052 6.35815 7.7345 6.437 7.85423 6.52795C8.11257 6.72417 8.20578 7.0299 8.29727 7.32999C8.31398 7.3848 8.33063 7.43943 8.34822 7.49316C8.40806 7.67613 8.46434 7.86327 8.52093 8.05148L8.52094 8.0515L8.52094 8.05151C8.66455 8.5291 8.81025 9.01365 9.02163 9.45477C9.08112 9.57867 9.25875 9.54221 9.25606 9.4012C9.24978 9.08769 9.17982 8.77479 9.11073 8.46578C9.08866 8.36707 9.06668 8.26875 9.04689 8.17094C8.97318 7.80746 8.84894 7.43812 8.72009 7.09035C8.46073 6.39073 7.9292 6.11106 7.29372 5.79921C7.24489 5.77527 7.18551 5.78516 7.1419 5.81489C7.13834 5.81731 7.13442 5.81975 7.13035 5.82229C7.11102 5.83431 7.08831 5.84844 7.08534 5.87226ZM4.26037 5.71818C4.37946 5.90135 4.55228 6.05355 4.72359 6.20441L4.72359 6.20441C4.82614 6.29472 4.92814 6.38455 5.01775 6.48026C5.28472 6.7653 5.52889 7.07078 5.75738 7.38723C5.94166 7.64241 6.1166 7.90377 6.28579 8.16884C6.10172 7.99153 5.91412 7.81785 5.72272 7.64816C5.66261 7.59485 5.6017 7.53933 5.53981 7.4829C5.15642 7.13338 4.73519 6.74936 4.22993 6.6455C4.13972 6.62705 4.04151 6.71418 4.05673 6.80745C4.096 7.04825 4.18703 7.20633 4.39619 7.33292C4.47037 7.37777 4.52304 7.27426 4.49086 7.2164C4.45673 7.15531 4.42873 7.09467 4.40704 7.0326C4.77768 7.21068 5.10293 7.50428 5.40977 7.78128C5.4657 7.83176 5.52101 7.88169 5.57587 7.93027C6.06756 8.36551 6.53517 8.82639 6.97982 9.30942L6.9802 9.31007L6.98033 9.30998C7.11015 9.45067 7.32527 9.3032 7.22442 9.13423L7.215 9.11846L7.215 9.11846C6.8085 8.43791 6.40052 7.75487 5.91912 7.12359C5.7073 6.8458 5.48201 6.57867 5.24052 6.32594C5.21099 6.29504 5.18084 6.26295 5.15007 6.23018C4.92217 5.98755 4.6596 5.708 4.35241 5.60482C4.28232 5.58124 4.21776 5.65221 4.26045 5.7178L4.26037 5.71818ZM8.54022 10.1567C8.26213 10.1225 7.94566 10.2828 7.66385 10.4255C7.56811 10.474 7.47636 10.5204 7.39148 10.5565C7.31373 10.5896 7.23576 10.6224 7.15776 10.6551C6.80084 10.8051 6.44309 10.9554 6.10069 11.1362C5.7821 11.3044 5.53199 11.5236 5.65742 11.9107C5.82287 12.4213 5.76144 12.7458 5.51928 13.2206C5.47787 13.3017 5.55449 13.4022 5.64439 13.3572C5.96374 13.1974 6.14198 12.8409 6.17695 12.4962C6.19362 12.3327 6.18127 12.1622 6.13834 12.0035C6.12939 11.9703 6.11677 11.9384 6.10436 11.907L6.10436 11.907C6.0661 11.8103 6.0299 11.7188 6.10967 11.6096C6.14352 11.5634 6.23136 11.5243 6.30179 11.493C6.32726 11.4816 6.35045 11.4713 6.36798 11.4621C6.69545 11.2897 7.0296 11.1301 7.36353 10.9706L7.36354 10.9706L7.36355 10.9705L7.36356 10.9705L7.36357 10.9705L7.36358 10.9705L7.55608 10.8785C7.62261 10.8465 7.69834 10.8145 7.77809 10.7808L7.7781 10.7808C8.08281 10.6519 8.44614 10.4983 8.57887 10.2304C8.59546 10.1969 8.5783 10.1616 8.54021 10.1569L8.54022 10.1567ZM15.3995 14.8394C15.442 14.9905 15.4868 15.1497 15.3778 15.2762C15.3616 15.2951 15.3384 15.2994 15.3156 15.2914C15.1251 15.2246 15.0341 14.9332 14.96 14.6957C14.9346 14.6143 14.9112 14.5393 14.8864 14.4818C14.7306 14.1201 14.5655 13.7561 14.3674 13.4153C14.355 13.3942 14.3421 13.3703 14.3285 13.3452C14.2901 13.2741 14.2466 13.1938 14.1989 13.1429C14.1792 13.1217 14.1674 13.1029 14.1591 13.0897C14.1406 13.0602 14.1399 13.059 14.1088 13.1239C14.0715 13.2017 14.0917 13.3404 14.1084 13.4548C14.1147 13.4977 14.1204 13.5371 14.1224 13.5687C14.1406 13.8495 14.1273 14.0969 14.0203 14.3593C13.9684 14.4867 13.771 14.5488 13.6657 14.4451C13.3386 14.1229 13.043 13.7808 12.7646 13.4158L12.7063 13.3397C12.4704 13.0323 12.1921 12.6697 12.1139 12.2987C12.0741 12.1094 12.3302 12.0065 12.4628 12.1111C12.6819 12.2841 12.8534 12.552 13.0163 12.8065L13.0163 12.8065L13.0164 12.8066L13.0164 12.8066C13.081 12.9076 13.1443 13.0065 13.2087 13.0965C13.3643 13.3141 13.5266 13.5272 13.6907 13.7388C13.6889 13.6484 13.6796 13.556 13.6704 13.4635C13.652 13.2806 13.6336 13.0971 13.6726 12.9273C13.7642 12.5279 14.1552 12.3902 14.4434 12.6962C14.7623 13.0349 14.9816 13.5905 15.1446 14.021C15.2378 14.2672 15.3152 14.5203 15.3817 14.775C15.3873 14.7962 15.3934 14.8177 15.3995 14.8394ZM16.5134 10.5989C16.3843 10.5316 16.2135 10.559 16.0558 10.5844L16.0558 10.5844C15.9965 10.5939 15.939 10.6032 15.8862 10.6069C15.5873 10.6284 15.2863 10.6191 14.9871 10.6098L14.9774 10.6095L14.9229 10.6078L14.9229 10.6078C14.651 10.5998 14.3795 10.5917 14.1157 10.5165C14.031 10.4923 13.9389 10.4595 13.8533 10.4174C14.0015 10.3119 14.1282 10.1682 14.2313 10.0024C14.4581 9.6375 14.6379 9.0429 14.1263 8.81514C13.7896 8.66522 13.4909 8.79325 13.1896 8.92243C13.0831 8.96809 12.9763 9.01389 12.8673 9.04761C12.4804 9.16735 12.2419 8.89466 12.0053 8.62415C11.9041 8.50851 11.8033 8.39326 11.6914 8.30925C11.6197 8.25552 11.5124 8.30893 11.5206 8.4011C11.579 9.04787 12.1406 9.54166 12.7763 9.55346C13.0634 9.55884 13.3779 9.50751 13.6636 9.46089L13.6636 9.46088L13.7154 9.45244C13.7208 9.45155 13.726 9.44969 13.7306 9.44725C13.7254 9.45472 13.7193 9.46374 13.7124 9.47457C13.6903 9.50924 13.6733 9.54476 13.6563 9.58019L13.6563 9.5802L13.6563 9.58021L13.6562 9.58022L13.6562 9.58022L13.6562 9.58023L13.6562 9.58024C13.6347 9.62508 13.6132 9.66978 13.5817 9.71245C13.4734 9.85882 13.3601 9.93372 13.1758 9.93285C12.8744 9.93135 12.7816 10.3584 12.997 10.5283C13.2326 10.7144 13.5967 10.8181 13.8872 10.9009L13.9009 10.9048C14.2239 10.997 14.5408 11.0112 14.8744 11.0104L14.9443 11.0102C15.2535 11.0096 15.5631 11.009 15.8705 10.9686L15.9183 10.9625C16.1384 10.9349 16.4573 10.895 16.5426 10.6747C16.5543 10.6447 16.5421 10.6142 16.5135 10.5993L16.5134 10.5989ZM17.4461 7.82757C18.0594 7.06788 18.8047 8.59703 18.9451 9.04299L18.9455 9.04288C18.9982 9.20984 18.7804 9.33071 18.673 9.18795C18.5871 9.07377 18.5112 8.93781 18.4341 8.79977C18.31 8.57749 18.1829 8.34985 18.0067 8.19914C17.7933 8.01674 17.7304 8.21174 17.6721 8.39235L17.6721 8.39236C17.6545 8.44695 17.6373 8.50023 17.6166 8.54138C17.5411 8.69083 17.4276 8.82235 17.265 8.87202C16.9818 8.95851 16.7358 8.75214 16.5175 8.56897C16.4627 8.52296 16.4096 8.4784 16.3581 8.44032C16.0136 8.18583 15.6425 7.97626 15.2509 7.80585C15.0823 7.73245 15.1373 7.49507 15.3057 7.4696C15.7785 7.39821 16.1775 7.60784 16.5517 7.88359C16.6185 7.93278 16.6853 7.99742 16.7533 8.06326C16.8593 8.16585 16.9684 8.27134 17.0847 8.32577C17.1476 8.41254 17.2031 8.39436 17.2511 8.27123C17.2726 8.21089 17.2924 8.15019 17.3104 8.08872C17.3458 7.99624 17.3832 7.90536 17.4461 7.82757ZM14.0436 6.34432L14.0436 6.34433C13.9544 6.41 13.8674 6.4741 13.7573 6.52019C13.5911 6.58978 13.4134 6.63829 13.2392 6.68585L13.1872 6.70008C13.1158 6.71968 13.0425 6.73811 12.9682 6.75675L12.9682 6.75676C12.6447 6.83796 12.305 6.92325 12.0457 7.12765C11.9776 7.18138 11.9746 7.30745 12.0677 7.34084C12.5621 7.51767 13.137 7.31722 13.6063 7.14368C13.9348 7.0223 14.4897 6.78032 14.394 6.34057C14.3726 6.24165 14.2756 6.18666 14.1846 6.24551L14.1845 6.24509C14.1348 6.27713 14.0889 6.31093 14.0436 6.34432ZM9.0531 10.6218C9.19088 10.3141 9.32887 10.0058 9.50893 9.72403L9.50874 9.72442C9.53694 9.6802 9.60993 9.70933 9.60384 9.75997C9.54153 10.2847 9.30061 10.794 9.0629 11.2672C9.20555 11.231 9.37767 11.3971 9.33049 11.5658C9.12997 12.2834 8.84076 12.9782 8.51444 13.6478C8.46774 13.7436 8.42144 13.8423 8.37451 13.9423C8.1199 14.485 7.84696 15.0667 7.3947 15.4371C7.30679 15.5092 7.14525 15.4398 7.16682 15.3168C7.25243 14.8288 7.50383 14.3749 7.751 13.9285C7.84802 13.7533 7.94439 13.5793 8.02983 13.4049C8.13275 13.1948 8.23413 12.9841 8.33314 12.7723C8.23867 12.8457 8.13866 12.9107 8.03205 12.9646C7.893 13.035 7.75715 12.859 7.84325 12.737C8.19232 12.2429 8.50647 11.7285 8.78492 11.1916C8.88103 11.0062 8.96702 10.8141 9.0531 10.6218Z" fill="black"/>
</g>
<path d="M13.4176 7.71059C13.0961 7.32455 12.7232 6.95728 12.2712 6.66624C11.7896 6.35642 11.2269 6.11745 10.5803 5.96536C9.88968 5.80286 9.54047 5.99432 8.69591 6.06688C8.63283 6.07234 8.62636 5.8991 8.6959 5.88775C9.293 5.64892 9.90514 5.51888 10.5803 5.64516C11.2799 5.77607 11.8758 6.02171 12.3857 6.33936C12.8876 6.65204 13.3323 7.00837 13.6916 7.42704C14.7542 8.6654 14.1295 8.89113 14.0698 8.89113C14.066 8.89113 13.5476 7.8667 13.4176 7.71059Z" fill="white"/>
</g>
<defs>
<linearGradient id="paint0_linear_1647_1756" x1="10.3473" y1="5.09424" x2="10.3473" y2="14.5457" gradientUnits="userSpaceOnUse">
<stop stop-color="#74A409"/>
<stop offset="1" stop-color="#50780A"/>
</linearGradient>
<linearGradient id="paint1_linear_1647_1756" x1="10.3473" y1="5.09424" x2="10.3473" y2="14.5457" gradientUnits="userSpaceOnUse">
<stop stop-color="#74A409"/>
<stop offset="1" stop-color="#50780A"/>
</linearGradient>
</defs>
</svg>
