<svg width="16" height="16" viewBox="0 0 16 16" fill="none" xmlns="http://www.w3.org/2000/svg">
<g clip-path="url(#clip0_571_1767)">
<path d="M8.33334 1C6.88294 1 5.46511 1.43009 4.25915 2.23589C3.05319 3.04169 2.11326 4.187 1.55822 5.52699C1.00318 6.86698 0.857953 8.34147 1.14091 9.764C1.42387 11.1865 2.1223 12.4932 3.14789 13.5188C4.17347 14.5444 5.48015 15.2428 6.90267 15.5258C8.3252 15.8087 9.79969 15.6635 11.1397 15.1085C12.4797 14.5534 13.625 13.6135 14.4308 12.4075C15.2366 11.2016 15.6667 9.78374 15.6667 8.33334C15.6644 6.38912 14.891 4.52519 13.5163 3.15042C12.1415 1.77565 10.2776 1.00229 8.33334 1ZM2.33334 8.33334C2.3328 6.97278 2.79738 5.65292 3.65 4.59267L12.074 13.0167C11.1923 13.7234 10.1289 14.1664 9.00623 14.2947C7.88361 14.4229 6.7476 14.2312 5.72926 13.7416C4.71093 13.2519 3.85177 12.4844 3.2509 11.5275C2.65003 10.5706 2.33194 9.46327 2.33334 8.33334ZM13.0167 12.074L4.59267 3.65C5.74415 2.72694 7.19575 2.26123 8.66933 2.34211C10.1429 2.42299 11.5348 3.04477 12.5784 4.08832C13.6219 5.13186 14.2437 6.52377 14.3246 7.99735C14.4054 9.47092 13.9397 10.9225 13.0167 12.074Z" fill="white" stroke="white" stroke-width="0.6"/>
</g>
<defs>
<clipPath id="clip0_571_1767">
<rect width="16" height="16" fill="white"/>
</clipPath>
</defs>
</svg>
