<svg width="16" height="14" viewBox="0 0 16 14" fill="none" xmlns="http://www.w3.org/2000/svg">
<path d="M14.9961 1.09071C15.0309 0.801706 14.8306 0.539001 14.5433 0.503958C14.256 0.468914 13.9948 0.670338 13.9599 0.95934L13.6465 3.40266C12.4623 1.63367 10.4597 0.538971 8.30038 0.538971C5.54895 0.538971 3.10228 2.29922 2.20546 4.90895C2.10969 5.18043 2.25769 5.47818 2.52761 5.57451C2.57984 5.59203 2.6408 5.60077 2.70175 5.60077C2.91944 5.60077 3.1197 5.46066 3.19805 5.25046C3.94684 3.0611 6.00171 1.58985 8.30035 1.58985C10.1811 1.58985 11.9312 2.58819 12.9064 4.18206L10.2943 3.88431C10.0069 3.84927 9.74573 4.05947 9.71959 4.34847C9.69347 4.63747 9.89373 4.90018 10.1811 4.92648L13.9425 5.35559C13.9599 5.35559 13.9861 5.35559 14.0035 5.35559C14.2647 5.35559 14.4911 5.16291 14.5172 4.90021L14.9961 1.09071ZM2.05746 8.12293L5.8189 8.55204C6.10624 8.58709 6.3152 8.84105 6.28038 9.13005C6.24554 9.41905 5.99305 9.62922 5.70571 9.59421L3.43318 9.34025C4.32131 11.2231 6.21073 12.4404 8.30911 12.4404C10.6687 12.4404 12.7932 10.8553 13.4724 8.58709C13.5594 8.30686 13.8468 8.14923 14.1254 8.23677C14.404 8.32432 14.5607 8.61335 14.4737 8.89358C14.0819 10.1984 13.2634 11.3719 12.1837 12.1951C11.0605 13.0446 9.71965 13.5 8.30911 13.5C5.73182 13.5 3.42446 11.9587 2.40575 9.62044L2.04006 12.5367C2.00522 12.7994 1.77884 12.9921 1.52635 12.9921C1.50023 12.9921 1.48281 12.9921 1.45669 12.9921C1.16936 12.957 0.969093 12.6943 1.00393 12.4053L1.49151 8.59583C1.51762 8.29809 1.77012 8.09666 2.05746 8.12293Z" fill="white" stroke="white" stroke-width="0.7"/>
</svg>
