<svg width="20" height="20" viewBox="0 0 20 20" fill="none" xmlns="http://www.w3.org/2000/svg">
<g clip-path="url(#clip0_1647_1681)">
<g clip-path="url(#clip1_1647_1681)">
<path d="M10.0001 18.9509C14.9435 18.9509 18.9509 14.9435 18.9509 10.0001C18.9509 5.05671 14.9435 1.04932 10.0001 1.04932C5.05671 1.04932 1.04932 5.05671 1.04932 10.0001C1.04932 14.9435 5.05671 18.9509 10.0001 18.9509Z" fill="url(#paint0_radial_1647_1681)" stroke="#F09241" stroke-width="2"/>
<path d="M12.8174 7.34932L12.5689 7.59701C13.7951 8.93778 13.7951 10.9932 12.5689 12.3339L12.8174 12.5824C14.1813 11.1024 14.1813 8.82317 12.8174 7.34317V7.34932ZM7.60279 7.37009C8.94433 6.14394 10.9989 6.14394 12.3405 7.37009L12.5882 7.1224C11.1082 5.75855 8.82894 5.75855 7.34971 7.12317L7.60356 7.37086L7.60279 7.37009ZM7.37048 12.3362C6.14664 10.9962 6.14664 8.9424 7.37048 7.60163L7.12356 7.35394C5.75894 8.83394 5.75894 11.1132 7.12356 12.5924L7.37125 12.3362H7.37048ZM12.3366 12.5655C10.9959 13.7916 8.94048 13.7916 7.59971 12.5655L7.35202 12.8132C8.83202 14.1778 11.1113 14.1778 12.5905 12.8132L12.3366 12.5655ZM11.5343 9.14163C11.4851 8.62394 11.0389 8.45086 10.4743 8.39778V7.68471H10.0382V8.38394H9.68894V7.68471H9.25587V8.4024H8.37125V8.86932C8.37125 8.86932 8.69279 8.86394 8.68817 8.86932C8.80894 8.85624 8.91894 8.94086 8.93587 9.06163V11.0247C8.93356 11.0662 8.91433 11.1047 8.88356 11.1316C8.85279 11.1593 8.81202 11.1732 8.77048 11.1701C8.77664 11.1747 8.45356 11.1701 8.45356 11.1701L8.37048 11.6909H9.24741V12.4201H9.6851V11.7016H10.0336V12.417H10.4705V11.6962C11.2082 11.6516 11.722 11.4693 11.7859 10.7793C11.8389 10.2239 11.5774 9.97624 11.1597 9.87624C11.4136 9.75163 11.5705 9.52009 11.5351 9.14163H11.5343ZM10.9236 10.6939C10.9236 11.2355 9.9951 11.1739 9.69894 11.1739V10.2124C9.9951 10.2124 10.9236 10.1278 10.9236 10.6939ZM10.7205 9.33855C10.7205 9.83394 9.9451 9.77394 9.69894 9.77394V8.89932C9.9451 8.89932 10.7205 8.8224 10.7205 9.33778V9.33855Z" fill="white"/>
<path d="M9.96795 14.4841C7.47487 14.4841 5.4541 12.4618 5.4541 9.96872C5.4541 7.47564 7.47564 5.4541 9.96872 5.4541C12.4618 5.4541 14.4841 7.47487 14.4841 9.96795C14.4841 11.1656 14.0087 12.3141 13.161 13.1618C12.3149 14.0079 11.1656 14.4841 9.96872 14.4841H9.96795ZM9.96795 5.80641C7.67102 5.80795 5.81026 7.67102 5.81102 9.96795C5.81179 12.2649 7.6741 14.1272 9.97179 14.1272C12.2687 14.1272 14.131 12.2656 14.1318 9.96795C14.1318 8.8641 13.6933 7.80487 12.9126 7.0241C12.1318 6.24333 11.0726 5.80564 9.96795 5.80641Z" fill="white"/>
</g>
</g>
<defs>
<radialGradient id="paint0_radial_1647_1681" cx="0" cy="0" r="1" gradientUnits="userSpaceOnUse" gradientTransform="translate(10.0001 10.0001) scale(7.41177)">
<stop stop-color="#F09241"/>
<stop offset="1" stop-color="#0B2B4D"/>
</radialGradient>
<clipPath id="clip0_1647_1681">
<rect width="20" height="20" fill="white"/>
</clipPath>
<clipPath id="clip1_1647_1681">
<rect width="20" height="20" fill="white"/>
</clipPath>
</defs>
</svg>
