<svg width="20" height="20" viewBox="0 0 20 20" fill="none" xmlns="http://www.w3.org/2000/svg">
<path d="M19 10C19 14.9706 14.9706 19 10 19C5.02944 19 1 14.9706 1 10C1 5.02944 5.02944 1 10 1C14.9706 1 19 5.02944 19 10Z" fill="url(#paint0_radial_10_514)" stroke="#00F6D2" stroke-width="2"/>
<path fill-rule="evenodd" clip-rule="evenodd" d="M10.0228 4.61536L10.0119 4.63412L10.0009 4.61536V4.65288L7.60784 8.73776L4.61523 7.45615V10.2964L6.71938 10.2544L4.61523 13.8461H9.99984H10.0239H15.4085L13.2955 10.2393L16.1537 10.2964V7.45615L12.5653 8.99289L10.0228 4.65288V4.61536ZM11.1905 9.58166L10.0119 7.53611L8.98067 9.32569L9.53252 9.56202L10.0002 8.73105V8.70687L10.007 8.71896L10.0138 8.7069V8.73102L10.6281 9.82254L11.1905 9.58166ZM9.17044 10.2054L8.30287 11.747L10.0133 11.7436L10.0138 11.7436L11.7111 11.7469L10.8349 10.1901L11.5494 10.2044L12.7599 12.3051L10.0239 12.3042L10.0119 12.3042L9.99984 12.3042V12.3042L7.26386 12.3051L8.46565 10.2195L9.17044 10.2054Z" fill="white"/>
<defs>
<radialGradient id="paint0_radial_10_514" cx="0" cy="0" r="1" gradientUnits="userSpaceOnUse" gradientTransform="translate(10 10) scale(10)">
<stop stop-color="#008471"/>
<stop offset="1" stop-color="#103051"/>
</radialGradient>
</defs>
</svg>
