<svg width="55" height="44" viewBox="0 0 55 44" fill="none" xmlns="http://www.w3.org/2000/svg">
<path d="M15.8954 41.5738L15.895 41.5733L2.29736 27.987C2.29731 27.987 2.29726 27.987 2.29722 27.9869C2.29712 27.9868 2.29702 27.9867 2.29692 27.9866C1.23431 26.9235 1.23436 25.1971 2.29707 24.1341C2.29716 24.134 2.29726 24.1339 2.29736 24.1338L22.7619 3.68059L22.7619 3.6806L22.7674 3.67506C23.6186 2.81543 24.7837 2.34064 26.0063 2.35762L26.0064 2.35762L38.2604 2.52703L38.2609 2.52704C39.9526 2.5499 41.3163 3.91059 41.344 5.60105V5.62385V6.67809L42.3359 7.03518C42.8905 7.23484 43.4422 7.44058 43.9878 7.66519C46.9801 8.90779 49.5552 10.56 51.2816 12.2864L51.3324 12.3372L51.3784 12.3832C52.7519 13.7834 53.2594 14.9085 53.426 15.6934C53.5914 16.4726 53.4466 17.0358 53.3085 17.3648L53.3064 17.3697C53.1661 17.7071 52.8652 18.2087 52.1958 18.6402C51.5207 19.0755 50.3648 19.5075 48.4042 19.5177L48.4023 19.5177C46.8106 19.5279 44.9533 19.2509 43.0002 18.7036L41.6963 18.3382L41.1999 19.5982C40.9802 20.1558 40.6412 20.6813 40.2022 21.1203L19.7486 41.5738C18.6855 42.6369 16.9585 42.6369 15.8954 41.5738ZM50.8731 12.6836C49.1526 10.9631 46.5697 9.35643 43.7752 8.18735C43.7118 8.15946 43.654 8.13566 43.6121 8.11841L43.6071 8.11634C43.5569 8.09567 43.5274 8.08345 43.4984 8.07052L41.357 7.11882L41.3893 9.46188L41.4265 12.1682C40.2121 11.6431 39.0702 11.0326 38.0624 10.3823C38.0007 9.19701 37.5164 8.02336 36.6087 7.11565C34.6563 5.16328 31.4929 5.16328 29.5406 7.11565C27.5914 9.06485 27.585 12.2282 29.5293 14.1725C31.2308 15.874 33.8522 16.0926 35.7901 14.8282C37.0671 15.63 38.4559 16.2688 39.9194 16.8831L39.9227 16.8845C43.1953 18.249 46.0005 18.7934 48.0997 18.8547C49.1424 18.8851 50.0572 18.7977 50.7865 18.6031C51.1492 18.5063 51.5137 18.3705 51.8363 18.1757C52.1372 17.994 52.5428 17.6754 52.7637 17.1522C52.9374 16.7416 52.933 16.3292 52.8937 16.0295C52.8507 15.7018 52.7476 15.3662 52.5979 15.0312C52.2987 14.3615 51.7728 13.6024 50.9529 12.7635L50.9469 12.7574L50.9409 12.7514L50.9069 12.7175L50.8731 12.6836L50.8731 12.6836Z" stroke="white" stroke-width="3"/>
</svg>
