<svg width="20" height="18" viewBox="0 0 20 18" fill="none" xmlns="http://www.w3.org/2000/svg">
<path d="M15.5078 0.0971069H4.49219C2.0152 0.0971069 0 2.1123 0 4.58929V8.88617C0 11.1647 1.705 13.0524 3.90625 13.3403V17.3169C3.90625 17.5539 4.04898 17.7676 4.26797 17.8582C4.34043 17.8883 4.4166 17.9028 4.49207 17.9028C4.64453 17.9028 4.79441 17.8433 4.90648 17.7312L9.25937 13.3784H15.5078C17.9848 13.3784 20 11.3632 20 8.88617V4.58929C20 2.1123 17.9848 0.0971069 15.5078 0.0971069ZM6.29301 6.4084C6.52738 6.4084 6.6602 6.63496 6.6602 6.88496C6.6602 7.0959 6.55078 7.3459 6.29301 7.3459H5.11336V9.36152C5.11336 9.61152 4.80863 9.73652 4.50398 9.73652C4.19926 9.73652 3.89461 9.61152 3.89461 9.36152V4.40062C3.89461 4.15062 4.1602 4.02562 4.42586 4.02562H7.13672C7.39453 4.02562 7.50391 4.29906 7.50391 4.54906C7.50391 4.83812 7.37109 5.08812 7.13672 5.08812H5.11332V6.4084H6.29301ZM11.0821 9.73648C10.8868 9.73648 10.7305 9.67398 10.6837 9.50992L10.418 8.53336H8.76965L8.50406 9.50992C8.45715 9.67398 8.3009 9.73648 8.10559 9.73648C7.76965 9.73648 7.32434 9.52554 7.32434 9.23648C7.32434 9.21304 7.33219 9.1818 7.33996 9.15055L8.79305 4.385C8.87902 4.11156 9.23059 3.97875 9.58992 3.97875C9.94926 3.97875 10.3008 4.11156 10.3868 4.385L11.8477 9.15055C11.8554 9.1818 11.8633 9.21304 11.8633 9.23648C11.8634 9.52554 11.418 9.73648 11.0821 9.73648ZM16.4804 7.93961C16.4804 9.12711 15.8242 9.65051 14.9336 9.75992V10.213C14.9336 10.463 14.7461 10.588 14.5586 10.588C14.3711 10.588 14.1836 10.463 14.1836 10.213V9.75992C13.293 9.65055 12.6446 9.12711 12.6446 7.93961V5.86933C12.6446 4.51777 13.4804 4.02562 14.5586 4.02562C15.6367 4.02562 16.4804 4.51781 16.4804 5.86933V7.93961H16.4804Z" fill="#00F6D2"/>
</svg>
