<svg width="20" height="20" viewBox="0 0 20 20" fill="none" xmlns="http://www.w3.org/2000/svg">
<path d="M14.5586 6.08813C14.1211 6.08813 13.8633 6.33813 13.8633 6.86935V8.93962C13.8633 9.29899 13.9726 9.52556 14.1836 9.64274V9.29899C14.1836 9.04118 14.3711 8.93181 14.5586 8.93181C14.7461 8.93181 14.9336 9.04118 14.9336 9.29899V9.64274C15.1367 9.52556 15.2617 9.29899 15.2617 8.93962V6.86935C15.2617 6.33813 14.9961 6.08813 14.5586 6.08813Z" fill="#00F6D2"/>
<path d="M7.01953 8.59585H8.16016L7.58984 6.50214L7.01953 8.59585Z" fill="#00F6D2"/>
<path d="M15.5078 1.09711H4.49219C2.0152 1.09711 0 3.1123 0 5.58929V9.88617C0 12.1647 1.705 14.0524 3.90625 14.3403V18.3169C3.90625 18.5539 4.04898 18.7676 4.26797 18.8582C4.34043 18.8883 4.4166 18.9028 4.49207 18.9028C4.64453 18.9028 4.79441 18.8433 4.90648 18.7312L9.25937 14.3784H15.5078C17.9848 14.3784 20 12.3632 20 9.88617V5.58929C20 3.1123 17.9848 1.09711 15.5078 1.09711V1.09711ZM6.29301 7.4084C6.52738 7.4084 6.6602 7.63496 6.6602 7.88496C6.6602 8.0959 6.55078 8.3459 6.29301 8.3459H5.11336V10.3615C5.11336 10.6115 4.80863 10.7365 4.50398 10.7365C4.19926 10.7365 3.89461 10.6115 3.89461 10.3615V5.40062C3.89461 5.15062 4.1602 5.02562 4.42586 5.02562H7.13672C7.39453 5.02562 7.50391 5.29906 7.50391 5.54906C7.50391 5.83812 7.37109 6.08812 7.13672 6.08812H5.11332V7.4084H6.29301ZM11.0821 10.7365C10.8868 10.7365 10.7305 10.674 10.6837 10.5099L10.418 9.53336H8.76965L8.50406 10.5099C8.45715 10.674 8.3009 10.7365 8.10559 10.7365C7.76965 10.7365 7.32434 10.5255 7.32434 10.2365C7.32434 10.213 7.33219 10.1818 7.33996 10.1505L8.79305 5.385C8.87902 5.11156 9.23059 4.97875 9.58992 4.97875C9.94926 4.97875 10.3008 5.11156 10.3868 5.385L11.8477 10.1505C11.8554 10.1818 11.8633 10.213 11.8633 10.2365C11.8634 10.5255 11.418 10.7365 11.0821 10.7365ZM16.4804 8.93961C16.4804 10.1271 15.8242 10.6505 14.9336 10.7599V11.213C14.9336 11.463 14.7461 11.588 14.5586 11.588C14.3711 11.588 14.1836 11.463 14.1836 11.213V10.7599C13.293 10.6505 12.6446 10.1271 12.6446 8.93961V6.86933C12.6446 5.51777 13.4804 5.02562 14.5586 5.02562C15.6367 5.02562 16.4804 5.51781 16.4804 6.86933V8.93961H16.4804Z" fill="#00F6D2"/>
</svg>
