<svg xmlns="http://www.w3.org/2000/svg" xmlns:xlink="http://www.w3.org/1999/xlink" width="18px" height="18px" viewBox="0 0 18 18" version="1.1">
    <title>gift</title>
    <g id="gift" stroke="none" stroke-width="1" fill="none" fill-rule="evenodd">
        <g transform="translate(2.000000, 1.000000)" fill="#FFFFFF" fill-rule="nonzero" id="Shape">
            <path d="M7.90216235e-06,5.95638335 L7.90216235e-06,14.182211 C7.90216235e-06,14.6652504 0.192268855,15.1284274 0.534334941,15.4694815 C0.876401027,15.8105355 1.34014565,16.0014174 1.82318294,16 L12.2066047,16 C13.2105331,16 14.0243778,15.1861393 14.0243778,14.182211 L14.0243778,5.95638335 C14.0243778,4.95157872 13.211405,4.1361891 12.2066047,4.1332163 L11.0522919,4.1332163 C11.2114769,3.96902826 11.3525325,3.78818781 11.4730227,3.59381777 C11.9421402,2.8081884 11.9666857,1.83455009 11.5377505,1.02628074 C11.1639467,0.373510657 10.4610945,-0.0204182947 9.70918951,0.00142352911 L9.70918951,0.00142352911 C8.8913288,-0.024646313 8.10300395,0.308420939 7.55159537,0.913007052 C7.33606844,1.14119424 7.15441606,1.39914062 7.01219684,1.67895297 C6.87828926,1.40079191 6.70577696,1.14293143 6.49976823,0.913007052 C5.94835966,0.308420939 5.16003481,-0.024646313 4.3421741,0.00142352911 L4.3421741,0.00142352911 C3.59007522,-0.0211307837 2.88607956,0.370207983 2.50821908,1.02088676 C2.07928392,1.82915611 2.10382942,2.80279442 2.5729469,3.58842378 C2.69343712,3.78279382 2.83449267,3.96363428 2.99367776,4.12782232 L1.82318294,4.12782232 C1.33871295,4.1278202 0.874163965,4.32064358 0.532098342,4.66372123 C0.190032718,5.00679888 -0.0014174503,5.47191548 7.90216235e-06,5.95638335 Z M12.9455808,5.95638335 L12.9455808,14.182211 C12.9455808,14.3781996 12.8677245,14.5661611 12.7291397,14.7047459 C12.5905548,14.8433308 12.4025933,14.921187 12.2066047,14.921187 L7.55159537,14.921187 L7.58935327,5.21201337 L12.2227867,5.21201337 C12.625441,5.22368938 12.94575,5.55355979 12.9455808,5.95638335 L12.9455808,5.95638335 Z M9.70918951,1.10179654 L9.70918951,1.10179654 C10.0764114,1.0770479 10.4257625,1.26322904 10.6099851,1.58186123 C10.8512318,2.05565394 10.8245757,2.62158193 10.5398633,3.07060119 C10.3079219,3.47515009 9.69840154,4.14939826 8.23123753,4.14939826 L7.55159537,4.14939826 C7.55159537,3.49672603 7.67565704,2.33701918 8.30135934,1.65198304 C8.66027841,1.25866746 9.17766678,1.04854038 9.70918951,1.0802206 L9.70918951,1.10179654 Z M3.48992441,3.04902525 C3.20521194,2.60000599 3.17855591,2.034078 3.4198026,1.56028529 C3.60314256,1.24347387 3.9498682,1.0575788 4.31520417,1.0802206 L4.31520417,1.0802206 C4.8323751,1.04847133 5.33734748,1.24572617 5.69606442,1.61961913 C6.3271607,2.32083723 6.44043439,3.48054408 6.47279831,4.1332163 L5.79855014,4.1332163 C4.31520417,4.1332163 3.72186578,3.45357415 3.48992441,3.04902525 Z M1.07881296,5.95638335 C1.07881296,5.54527916 1.41207875,5.21201337 1.82318294,5.21201337 L6.47279831,5.21201337 L6.43504041,14.9212067 L1.82318294,14.9212067 C1.62626141,14.9226244 1.43691128,14.8454033 1.29715759,14.7066623 C1.1574039,14.5679213 1.07881296,14.3791378 1.07881296,14.182211 L1.07881296,5.95638335 Z"/>
        </g>
    </g>
</svg>