<svg width="8" height="18" viewBox="0 0 8 18" fill="none" xmlns="http://www.w3.org/2000/svg">
<path d="M7.73841 16.0575L7.48691 17.0856C6.7324 17.3834 6.1297 17.6101 5.68089 17.7659C5.23161 17.9222 4.70956 18 4.11476 18C3.20135 18 2.49088 17.7762 1.98416 17.3318C1.47745 16.8856 1.22401 16.3201 1.22401 15.6342C1.22401 15.3687 1.2424 15.0955 1.28063 14.8172C1.31919 14.5386 1.38049 14.2249 1.46438 13.8741L2.40732 10.5367C2.4912 10.2171 2.56251 9.9143 2.61962 9.62795C2.67753 9.34338 2.70544 9.08155 2.70544 8.84585C2.70544 8.41964 2.6172 8.12151 2.44152 7.9539C2.26584 7.78677 1.9306 7.70191 1.43292 7.70191C1.18916 7.70191 0.938626 7.74095 0.683251 7.81645C0.426746 7.89227 0.207508 7.96551 0.0234375 8.03359L0.275586 7.00467C0.893294 6.75317 1.48374 6.5378 2.04853 6.35905C2.61333 6.17982 3.14698 6.09013 3.65177 6.09013C4.55889 6.09013 5.25887 6.30936 5.75042 6.74784C6.24198 7.18664 6.48767 7.75547 6.48767 8.45642C6.48767 8.60145 6.47154 8.85699 6.43686 9.22222C6.40298 9.58827 6.3399 9.92366 6.24795 10.2287L5.30904 13.5528C5.23209 13.8198 5.16288 14.125 5.10271 14.4685C5.0406 14.8097 5.01092 15.0704 5.01092 15.2452C5.01092 15.6866 5.10932 15.988 5.30662 16.1482C5.50537 16.3084 5.8477 16.3881 6.33393 16.3881C6.5622 16.3881 6.82194 16.3476 7.11054 16.268C7.39834 16.1885 7.60823 16.1186 7.73841 16.0575ZM7.97653 2.10205C7.97653 2.6812 7.75826 3.17582 7.31962 3.58251C6.88211 3.99066 6.3549 4.1949 5.73816 4.1949C5.11949 4.1949 4.59099 3.99066 4.14848 3.58251C3.70678 3.17565 3.48544 2.6812 3.48544 2.10205C3.48544 1.52402 3.70678 1.0286 4.14848 0.61674C4.59019 0.205526 5.11965 0 5.73816 0C6.35474 0 6.88211 0.20601 7.31962 0.61674C7.75858 1.0286 7.97653 1.52418 7.97653 2.10205Z" fill="#00F6D2"/>
</svg>
