<svg width="266" height="161" viewBox="0 0 266 161" fill="none" xmlns="http://www.w3.org/2000/svg">
<path d="M101 108C104.314 108 107 105.314 107 102C107 98.6863 104.314 96 101 96C97.6863 96 95 98.6863 95 102C95 105.314 97.6863 108 101 108Z" fill="#9F7DFF"/>
<path d="M156 74C159.314 74 162 71.3137 162 68C162 64.6863 159.314 62 156 62C152.686 62 150 64.6863 150 68C150 71.3137 152.686 74 156 74Z" fill="#5AC0F9"/>
<path d="M8.5 57C7.756 57 7.154 57.603 7.154 58.347V59.256C7.154 59.999 7.756 60.603 8.5 60.603C9.244 60.603 9.846 59.999 9.846 59.256V58.348C9.846 57.603 9.244 57 8.5 57ZM8.5 70.398C7.756 70.398 7.154 71.001 7.154 71.745V72.652C7.154 73.396 7.756 74 8.5 74C9.244 74 9.846 73.396 9.846 72.652V71.745C9.846 71.001 9.244 70.398 8.5 70.398ZM12.917 62.431C13.262 62.431 13.607 62.3 13.87 62.036L14.51 61.396C15.036 60.87 15.036 60.016 14.51 59.491C13.985 58.964 13.133 58.964 12.608 59.488L11.966 60.13C11.44 60.656 11.44 61.51 11.966 62.035C12.228 62.299 12.573 62.431 12.918 62.431H12.917ZM3.131 68.963L2.491 69.603C1.965 70.129 1.964 70.983 2.489 71.509C2.752 71.773 3.097 71.904 3.442 71.904C3.786 71.904 4.13 71.773 4.393 71.51L5.035 70.87C5.56 70.344 5.561 69.49 5.035 68.964C4.51 68.438 3.658 68.437 3.131 68.964V68.963ZM15.654 64.153H14.746C14.004 64.153 13.4 64.756 13.4 65.5C13.4 66.244 14.004 66.847 14.746 66.847H15.654C16.398 66.847 17 66.244 17 65.5C17 64.756 16.398 64.153 15.654 64.153ZM3.6 65.5C3.6 64.756 2.997 64.153 2.254 64.153H1.346C0.602 64.153 0 64.756 0 65.5C0 66.244 0.602 66.847 1.346 66.847H2.254C2.997 66.847 3.6 66.244 3.6 65.5ZM13.87 68.963C13.343 68.437 12.49 68.438 11.964 68.963C11.44 69.491 11.44 70.343 11.966 70.87L12.608 71.51C12.87 71.773 13.215 71.904 13.559 71.904C13.903 71.904 14.249 71.773 14.512 71.509C15.036 70.982 15.036 70.129 14.51 69.603L13.869 68.963H13.87ZM3.13 62.036C3.394 62.3 3.738 62.431 4.082 62.431C4.426 62.431 4.772 62.299 5.035 62.035C5.56 61.509 5.559 60.656 5.034 60.13L4.392 59.488C3.866 58.964 3.014 58.964 2.488 59.491C1.963 60.017 1.964 60.87 2.489 61.396L3.13 62.036Z" fill="#FFB657"/>
<path d="M253.5 113C252.406 113 251.521 113.887 251.521 114.981V116.318C251.521 117.41 252.406 118.299 253.5 118.299C254.594 118.299 255.479 117.41 255.479 116.318V114.982C255.479 113.887 254.594 113 253.5 113ZM253.5 132.703C252.406 132.703 251.521 133.59 251.521 134.684V136.018C251.521 137.112 252.406 138 253.5 138C254.594 138 255.479 137.112 255.479 136.018V134.684C255.479 133.59 254.594 132.703 253.5 132.703ZM259.996 120.987C260.503 120.987 261.01 120.794 261.397 120.406L262.338 119.465C263.112 118.691 263.112 117.435 262.338 116.663C261.566 115.888 260.313 115.888 259.541 116.659L258.597 117.603C257.824 118.376 257.824 119.632 258.597 120.404C258.982 120.793 259.49 120.987 259.997 120.987H259.996ZM245.604 130.593L244.663 131.534C243.89 132.307 243.888 133.563 244.66 134.337C245.047 134.725 245.554 134.918 246.062 134.918C246.568 134.918 247.074 134.725 247.46 134.338L248.404 133.397C249.176 132.624 249.178 131.368 248.404 130.594C247.632 129.821 246.379 129.819 245.604 130.594V130.593ZM264.021 123.519H262.685C261.594 123.519 260.706 124.406 260.706 125.5C260.706 126.594 261.594 127.481 262.685 127.481H264.021C265.115 127.481 266 126.594 266 125.5C266 124.406 265.115 123.519 264.021 123.519ZM246.294 125.5C246.294 124.406 245.407 123.519 244.315 123.519H242.979C241.885 123.519 241 124.406 241 125.5C241 126.594 241.885 127.481 242.979 127.481H244.315C245.407 127.481 246.294 126.594 246.294 125.5ZM261.397 130.593C260.622 129.819 259.368 129.821 258.594 130.593C257.824 131.369 257.824 132.622 258.597 133.397L259.541 134.338C259.926 134.725 260.434 134.918 260.94 134.918C261.446 134.918 261.954 134.725 262.341 134.337C263.112 133.562 263.112 132.307 262.338 131.534L261.396 130.593H261.397ZM245.603 120.406C245.991 120.794 246.497 120.987 247.003 120.987C247.509 120.987 248.018 120.793 248.404 120.404C249.176 119.631 249.175 118.376 248.403 117.603L247.459 116.659C246.685 115.888 245.432 115.888 244.659 116.663C243.887 117.437 243.888 118.691 244.66 119.465L245.603 120.406Z" fill="#FFB657"/>
<path d="M148.041 17.6181L151.176 23.3514C151.286 23.5511 151.449 23.7135 151.649 23.8235L157.382 26.9593C158.206 27.4094 158.206 28.5906 157.382 29.0407L151.649 32.1765C151.449 32.2865 151.286 32.4489 151.176 32.6486L148.041 38.3819C147.591 39.206 146.409 39.206 145.959 38.3819L142.824 32.6486C142.714 32.4489 142.551 32.2865 142.351 32.1765L136.618 29.0407C135.794 28.5906 135.794 27.4094 136.618 26.9593L142.351 23.8235C142.551 23.7152 142.714 23.5511 142.824 23.3514L145.959 17.6181C146.409 16.794 147.591 16.794 148.041 17.6181Z" fill="#1094FF"/>
<path d="M40.4731 118.281L41.8984 120.887C41.9484 120.978 42.0222 121.052 42.113 121.102L44.719 122.527C45.0936 122.732 45.0936 123.268 44.719 123.473L42.113 124.898C42.0222 124.948 41.9484 125.022 41.8984 125.113L40.4731 127.719C40.2685 128.094 39.7315 128.094 39.5269 127.719L38.1016 125.113C38.0516 125.022 37.9778 124.948 37.887 124.898L35.281 123.473C34.9063 123.268 34.9063 122.732 35.281 122.527L37.887 121.102C37.9778 121.052 38.0516 120.978 38.1016 120.887L39.5269 118.281C39.7315 117.906 40.2685 117.906 40.4731 118.281Z" fill="#084A90"/>
<path d="M43.7569 0.449521L46.0374 4.61921C46.1174 4.76443 46.2356 4.88258 46.3808 4.96258L50.5505 7.24311C51.1498 7.57048 51.1498 8.42952 50.5505 8.75689L46.3808 11.0374C46.2356 11.1174 46.1174 11.2356 46.0374 11.3808L43.7569 15.5505C43.4295 16.1498 42.5705 16.1498 42.2431 15.5505L39.9626 11.3808C39.8826 11.2356 39.7644 11.1174 39.6192 11.0374L35.4495 8.75689C34.8502 8.42952 34.8502 7.57048 35.4495 7.24311L39.6192 4.96258C39.7644 4.88381 39.8826 4.76443 39.9626 4.61921L42.2431 0.449521C42.5705 -0.14984 43.4295 -0.14984 43.7569 0.449521Z" fill="#084A90"/>
<path d="M217.5 54C225.508 54 232 47.5081 232 39.5C232 31.4919 225.508 25 217.5 25C209.492 25 203 31.4919 203 39.5C203 47.5081 209.492 54 217.5 54Z" fill="#000A16" stroke="url(#paint0_linear_6_107)" stroke-width="3"/>
<path d="M217.511 30.5418L225.151 43.7058H209.869L217.511 30.5418ZM217.511 34.8908L213.638 41.5408H221.381L217.511 34.8908Z" fill="#0B76FF"/>
<g style="mix-blend-mode:lighten">
<path d="M217.508 48.0737L209.868 34.9097H225.15L217.508 48.0737ZM217.508 43.7257L221.381 37.0747H213.638L217.508 43.7247V43.7257Z" fill="#00E3C2"/>
</g>
<path d="M213.118 31.7197L226.317 39.3L213.082 46.941L213.118 31.7197ZM215.293 35.486L215.264 43.1816L221.969 39.3101L215.293 35.486Z" fill="#25C0FF"/>
<g style="mix-blend-mode:lighten">
<path d="M221.882 46.904L208.683 39.3237L221.918 31.6827L221.882 46.904ZM219.708 43.1386L219.736 35.4421L213.031 39.3136L219.707 43.1377L219.708 43.1386Z" fill="#FF51FF"/>
</g>
<path d="M95.5 160C101.299 160 106 155.299 106 149.5C106 143.701 101.299 139 95.5 139C89.701 139 85 143.701 85 149.5C85 155.299 89.701 160 95.5 160Z" fill="#000A16" stroke="url(#paint1_linear_6_107)" stroke-width="2"/>
<path d="M95.5079 143.013L101.04 152.546H89.974L95.5079 143.013ZM95.5079 146.162L92.7033 150.978H98.3103L95.5079 146.162Z" fill="#0B76FF"/>
<g style="mix-blend-mode:lighten">
<path d="M95.5056 155.708L89.9732 146.176H101.039L95.5056 155.708ZM95.5056 152.56L98.3102 147.744H92.7032L95.5056 152.559V152.56Z" fill="#00E3C2"/>
</g>
<path d="M92.3266 143.866L101.884 149.355L92.3005 154.888L92.3266 143.866ZM93.9013 146.593L93.8802 152.166L98.736 149.362L93.9013 146.593Z" fill="#25C0FF"/>
<g style="mix-blend-mode:lighten">
<path d="M98.6732 154.862L89.1157 149.372L98.6994 143.839L98.6732 154.862ZM97.099 152.135L97.1197 146.562L92.2639 149.365L97.0986 152.134L97.099 152.135Z" fill="#FF51FF"/>
</g>
<path d="M96 45.5C96 51.299 91.299 56 85.5 56C79.701 56 75 51.299 75 45.5C75 39.701 79.701 35 85.5 35C91.299 35 96 39.701 96 45.5Z" fill="url(#paint2_radial_6_107)" stroke="#00F6D2" stroke-width="2"/>
<path fill-rule="evenodd" clip-rule="evenodd" d="M85.5265 39.3077L85.5139 39.3293L85.5012 39.3077V39.3508L82.7492 44.0485L79.3077 42.5746V45.8409L81.7275 45.7925L79.3077 49.9231H85.5H85.5277H91.72L89.2901 45.7752L92.5769 45.8409V42.5746L88.4504 44.3419L85.5265 39.3508V39.3077ZM86.8693 45.0189L85.5139 42.6666L84.328 44.7246L84.9626 44.9964L85.5004 44.0407V44.0129L85.5082 44.0268L85.5161 44.013V44.0407L86.2225 45.296L86.8693 45.0189ZM84.5462 45.7362L83.5485 47.509L85.5156 47.5052L85.5161 47.5052L87.468 47.509L86.4604 45.7187L87.282 45.7351L88.6741 48.1509L85.5277 48.1498H85.5L82.3537 48.1509L83.7357 45.7524L84.5462 45.7362Z" fill="white"/>
<path d="M176.5 129.5C176.5 137.784 169.784 144.5 161.5 144.5C153.216 144.5 146.5 137.784 146.5 129.5C146.5 121.216 153.216 114.5 161.5 114.5C169.784 114.5 176.5 121.216 176.5 129.5Z" fill="url(#paint3_radial_6_107)" stroke="#00F6D2" stroke-width="3"/>
<path fill-rule="evenodd" clip-rule="evenodd" d="M161.538 120.615L161.52 120.646L161.502 120.615V120.677L157.553 127.417L152.615 125.303V129.989L156.087 129.92L152.615 135.846H161.5H161.54H170.424L166.938 129.895L171.654 129.989V125.303L165.733 127.838L161.538 120.677V120.615ZM163.465 128.81L161.52 125.435L159.818 128.387L160.729 128.777L161.501 127.406V127.366L161.512 127.386L161.523 127.366V127.406L162.537 129.207L163.465 128.81ZM160.131 129.839L158.7 132.383L161.522 132.377L161.523 132.377L164.323 132.383L162.878 129.814L164.057 129.837L166.054 133.304L161.54 133.302H161.5L156.986 133.304L158.969 129.862L160.131 129.839Z" fill="white"/>
<g style="mix-blend-mode:overlay">
<path fill-rule="evenodd" clip-rule="evenodd" d="M218.623 70H54.2016C45.8058 70 39 76.8058 39 85.2016C39 93.5968 45.8058 100.403 54.2016 100.403H218.623C227.019 100.403 233.824 93.5968 233.824 85.2016C233.824 76.8058 227.019 70 218.623 70Z" fill="#0E46A0"/>
</g>
<path fill-rule="evenodd" clip-rule="evenodd" d="M218.623 70H178.204V100.403H218.623C227.019 100.403 233.824 93.5968 233.824 85.201C233.824 76.8058 227.019 70 218.623 70Z" fill="#00F6D2"/>
<path fill-rule="evenodd" clip-rule="evenodd" d="M218.623 70H178.204V100.403H218.623C227.019 100.403 233.824 93.5968 233.824 85.201C233.824 76.8058 227.019 70 218.623 70Z" fill="url(#paint4_linear_6_107)"/>
<path fill-rule="evenodd" clip-rule="evenodd" d="M203.251 78.3569C199.996 78.3569 197.357 80.997 197.357 84.2514C197.357 87.5068 199.996 90.1447 203.251 90.1447C206.507 90.1447 209.145 87.5068 209.145 84.2514C209.145 80.997 206.507 78.3569 203.251 78.3569ZM213.31 94.31C212.619 95.0004 211.5 95.0004 210.81 94.31L207.689 91.1891C206.405 92.011 204.888 92.5022 203.251 92.5022C198.694 92.5022 195 88.8079 195 84.2513C195 79.6943 198.694 76 203.251 76C207.808 76 211.503 79.6943 211.503 84.2513C211.503 85.8884 211.012 87.4053 210.19 88.6894L213.31 91.8097C214 92.5006 214 93.6191 213.31 94.31Z" fill="white"/>
<path d="M58.988 89H57.728V85.376C57.728 84.576 57.34 84.176 56.564 84.176C56.26 84.176 55.976 84.252 55.712 84.404C55.448 84.556 55.236 84.74 55.076 84.956V89H53.816V83.204H55.076V83.996C55.292 83.74 55.58 83.52 55.94 83.336C56.3 83.152 56.692 83.06 57.116 83.06C57.732 83.06 58.196 83.22 58.508 83.54C58.828 83.86 58.988 84.32 58.988 84.92V89ZM65.4246 89H64.1646V88.376C63.7166 88.888 63.0926 89.144 62.2926 89.144C61.7646 89.144 61.2966 88.976 60.8886 88.64C60.4806 88.296 60.2766 87.824 60.2766 87.224C60.2766 86.608 60.4766 86.14 60.8766 85.82C61.2846 85.5 61.7566 85.34 62.2926 85.34C63.1166 85.34 63.7406 85.588 64.1646 86.084V85.22C64.1646 84.884 64.0406 84.62 63.7926 84.428C63.5446 84.236 63.2166 84.14 62.8086 84.14C62.1606 84.14 61.5886 84.384 61.0926 84.872L60.5766 83.996C61.2326 83.372 62.0446 83.06 63.0126 83.06C63.7246 83.06 64.3046 83.228 64.7526 83.564C65.2006 83.9 65.4246 84.432 65.4246 85.16V89ZM62.7846 88.28C63.4166 88.28 63.8766 88.08 64.1646 87.68V86.804C63.8766 86.404 63.4166 86.204 62.7846 86.204C62.4246 86.204 62.1286 86.3 61.8966 86.492C61.6646 86.684 61.5486 86.936 61.5486 87.248C61.5486 87.56 61.6646 87.812 61.8966 88.004C62.1286 88.188 62.4246 88.28 62.7846 88.28ZM75.4222 89H74.1622V85.22C74.1622 84.524 73.8462 84.176 73.2142 84.176C72.9502 84.176 72.6942 84.252 72.4462 84.404C72.1982 84.556 72.0062 84.736 71.8702 84.944V89H70.6102V85.22C70.6102 84.524 70.2902 84.176 69.6502 84.176C69.3942 84.176 69.1422 84.252 68.8942 84.404C68.6542 84.556 68.4622 84.74 68.3182 84.956V89H67.0582V83.204H68.3182V83.996C68.4622 83.78 68.7102 83.572 69.0622 83.372C69.4222 83.164 69.8022 83.06 70.2022 83.06C71.0422 83.06 71.5702 83.416 71.7862 84.128C71.9702 83.84 72.2422 83.592 72.6022 83.384C72.9622 83.168 73.3462 83.06 73.7542 83.06C74.8662 83.06 75.4222 83.644 75.4222 84.812V89ZM79.7303 89.144C78.8503 89.144 78.1223 88.864 77.5463 88.304C76.9783 87.736 76.6943 87 76.6943 86.096C76.6943 85.248 76.9703 84.532 77.5223 83.948C78.0823 83.356 78.7863 83.06 79.6343 83.06C80.4903 83.06 81.1783 83.356 81.6983 83.948C82.2263 84.54 82.4903 85.296 82.4903 86.216V86.516H78.0143C78.0623 86.972 78.2503 87.352 78.5783 87.656C78.9063 87.96 79.3343 88.112 79.8623 88.112C80.1583 88.112 80.4543 88.056 80.7503 87.944C81.0543 87.832 81.3063 87.676 81.5063 87.476L82.0823 88.304C81.4983 88.864 80.7143 89.144 79.7303 89.144ZM81.2663 85.628C81.2503 85.228 81.1023 84.872 80.8223 84.56C80.5503 84.248 80.1543 84.092 79.6343 84.092C79.1383 84.092 78.7503 84.248 78.4703 84.56C78.1903 84.864 78.0343 85.22 78.0023 85.628H81.2663ZM84.9114 88.892C84.7434 89.052 84.5474 89.132 84.3234 89.132C84.0994 89.132 83.9034 89.052 83.7354 88.892C83.5674 88.724 83.4834 88.524 83.4834 88.292C83.4834 88.06 83.5674 87.864 83.7354 87.704C83.9034 87.536 84.0994 87.452 84.3234 87.452C84.5474 87.452 84.7434 87.536 84.9114 87.704C85.0794 87.864 85.1634 88.06 85.1634 88.292C85.1634 88.524 85.0794 88.724 84.9114 88.892ZM87.8768 87.26C88.0128 87.476 88.2208 87.66 88.5008 87.812C88.7888 87.956 89.0768 88.028 89.3648 88.028C89.8608 88.028 90.2568 87.852 90.5528 87.5C90.8568 87.14 91.0088 86.676 91.0088 86.108C91.0088 85.54 90.8568 85.076 90.5528 84.716C90.2568 84.356 89.8608 84.176 89.3648 84.176C89.0768 84.176 88.7928 84.252 88.5128 84.404C88.2328 84.556 88.0208 84.744 87.8768 84.968V87.26ZM87.8768 89H86.6168V80.996H87.8768V84.008C88.3488 83.376 88.9688 83.06 89.7368 83.06C90.4888 83.06 91.1048 83.34 91.5848 83.9C92.0648 84.452 92.3048 85.188 92.3048 86.108C92.3048 87.044 92.0648 87.784 91.5848 88.328C91.1048 88.872 90.4888 89.144 89.7368 89.144C88.9768 89.144 88.3568 88.832 87.8768 88.208V89ZM96.2654 89.144C95.3854 89.144 94.6574 88.864 94.0814 88.304C93.5134 87.736 93.2294 87 93.2294 86.096C93.2294 85.248 93.5054 84.532 94.0574 83.948C94.6174 83.356 95.3214 83.06 96.1694 83.06C97.0254 83.06 97.7134 83.356 98.2334 83.948C98.7614 84.54 99.0254 85.296 99.0254 86.216V86.516H94.5494C94.5974 86.972 94.7854 87.352 95.1134 87.656C95.4414 87.96 95.8694 88.112 96.3974 88.112C96.6934 88.112 96.9894 88.056 97.2854 87.944C97.5894 87.832 97.8414 87.676 98.0414 87.476L98.6174 88.304C98.0334 88.864 97.2494 89.144 96.2654 89.144ZM97.8014 85.628C97.7854 85.228 97.6374 84.872 97.3574 84.56C97.0854 84.248 96.6894 84.092 96.1694 84.092C95.6734 84.092 95.2854 84.248 95.0054 84.56C94.7254 84.864 94.5694 85.22 94.5374 85.628H97.8014ZM105.069 89H103.809V88.376C103.361 88.888 102.737 89.144 101.937 89.144C101.409 89.144 100.941 88.976 100.533 88.64C100.125 88.296 99.9211 87.824 99.9211 87.224C99.9211 86.608 100.121 86.14 100.521 85.82C100.929 85.5 101.401 85.34 101.937 85.34C102.761 85.34 103.385 85.588 103.809 86.084V85.22C103.809 84.884 103.685 84.62 103.437 84.428C103.189 84.236 102.861 84.14 102.453 84.14C101.805 84.14 101.233 84.384 100.737 84.872L100.221 83.996C100.877 83.372 101.689 83.06 102.657 83.06C103.369 83.06 103.949 83.228 104.397 83.564C104.845 83.9 105.069 84.432 105.069 85.16V89ZM102.429 88.28C103.061 88.28 103.521 88.08 103.809 87.68V86.804C103.521 86.404 103.061 86.204 102.429 86.204C102.069 86.204 101.773 86.3 101.541 86.492C101.309 86.684 101.193 86.936 101.193 87.248C101.193 87.56 101.309 87.812 101.541 88.004C101.773 88.188 102.069 88.28 102.429 88.28ZM115.067 89H113.807V85.22C113.807 84.524 113.491 84.176 112.859 84.176C112.595 84.176 112.339 84.252 112.091 84.404C111.843 84.556 111.651 84.736 111.515 84.944V89H110.255V85.22C110.255 84.524 109.935 84.176 109.295 84.176C109.039 84.176 108.787 84.252 108.539 84.404C108.299 84.556 108.107 84.74 107.963 84.956V89H106.703V83.204H107.963V83.996C108.107 83.78 108.355 83.572 108.707 83.372C109.067 83.164 109.447 83.06 109.847 83.06C110.687 83.06 111.215 83.416 111.431 84.128C111.615 83.84 111.887 83.592 112.247 83.384C112.607 83.168 112.991 83.06 113.399 83.06C114.511 83.06 115.067 83.644 115.067 84.812V89Z" fill="white"/>
<defs>
<linearGradient id="paint0_linear_6_107" x1="217.5" y1="25" x2="217.5" y2="54" gradientUnits="userSpaceOnUse">
<stop stop-color="#A17DFF"/>
<stop offset="1" stop-color="#6F7FFF"/>
</linearGradient>
<linearGradient id="paint1_linear_6_107" x1="95.5" y1="139" x2="95.5" y2="160" gradientUnits="userSpaceOnUse">
<stop stop-color="#A17DFF"/>
<stop offset="1" stop-color="#6F7FFF"/>
</linearGradient>
<radialGradient id="paint2_radial_6_107" cx="0" cy="0" r="1" gradientUnits="userSpaceOnUse" gradientTransform="translate(85.5 45.5) scale(11.5)">
<stop stop-color="#008471"/>
<stop offset="1" stop-color="#103051"/>
</radialGradient>
<radialGradient id="paint3_radial_6_107" cx="0" cy="0" r="1" gradientUnits="userSpaceOnUse" gradientTransform="translate(161.5 129.5) scale(16.5)">
<stop stop-color="#008471"/>
<stop offset="1" stop-color="#103051"/>
</radialGradient>
<linearGradient id="paint4_linear_6_107" x1="234" y1="85" x2="178" y2="85" gradientUnits="userSpaceOnUse">
<stop stop-color="#00F6D2"/>
<stop offset="1" stop-color="#307DF6"/>
</linearGradient>
</defs>
</svg>
