<svg width="14" height="13" viewBox="0 0 14 13" fill="none" xmlns="http://www.w3.org/2000/svg">
<path d="M7.00031 1.06332C6.27391 0.395394 5.32312 0.0246892 4.33631 0.0246582C3.81401 0.025202 3.29696 0.129031 2.81494 0.33017C2.33291 0.53131 1.89542 0.825788 1.52765 1.19666C-0.0410208 2.77199 -0.0403541 5.23599 1.52898 6.80466L6.41698 11.6927C6.53031 11.892 6.74898 12.0207 7.00031 12.0207C7.10351 12.0197 7.20504 11.9945 7.29674 11.9471C7.38844 11.8998 7.46775 11.8316 7.52831 11.748L12.4716 6.80466C14.041 5.23532 14.041 2.77199 12.4703 1.19399C12.1027 0.823803 11.6656 0.529923 11.184 0.329247C10.7025 0.128571 10.186 0.0250579 9.66431 0.0246582C8.67753 0.0248195 7.72678 0.395507 7.00031 1.06332Z" fill="#F93030"/>
</svg>
