<svg width="16" height="15" viewBox="0 0 16 15" fill="none" xmlns="http://www.w3.org/2000/svg">
<path d="M14.9961 1.59071C15.0309 1.30171 14.8306 1.039 14.5433 1.00396C14.256 0.968914 13.9948 1.17034 13.9599 1.45934L13.6465 3.90266C12.4623 2.13367 10.4597 1.03897 8.30038 1.03897C5.54895 1.03897 3.10228 2.79922 2.20546 5.40895C2.10969 5.68043 2.25769 5.97818 2.52761 6.07451C2.57984 6.09203 2.6408 6.10077 2.70175 6.10077C2.91944 6.10077 3.1197 5.96066 3.19805 5.75046C3.94684 3.5611 6.00171 2.08985 8.30035 2.08985C10.1811 2.08985 11.9312 3.08819 12.9064 4.68206L10.2943 4.38431C10.0069 4.34927 9.74573 4.55947 9.71959 4.84847C9.69347 5.13747 9.89373 5.40018 10.1811 5.42648L13.9425 5.85559C13.9599 5.85559 13.9861 5.85559 14.0035 5.85559C14.2647 5.85559 14.4911 5.66291 14.5172 5.40021L14.9961 1.59071ZM2.05746 8.62293L5.8189 9.05204C6.10624 9.08709 6.3152 9.34105 6.28038 9.63005C6.24554 9.91905 5.99305 10.1292 5.70571 10.0942L3.43318 9.84025C4.32131 11.7231 6.21073 12.9404 8.30911 12.9404C10.6687 12.9404 12.7932 11.3553 13.4724 9.08709C13.5594 8.80686 13.8468 8.64923 14.1254 8.73677C14.404 8.82432 14.5607 9.11335 14.4737 9.39358C14.0819 10.6984 13.2634 11.8719 12.1837 12.6951C11.0605 13.5446 9.71965 14 8.30911 14C5.73182 14 3.42446 12.4587 2.40575 10.1204L2.04006 13.0367C2.00522 13.2994 1.77884 13.4921 1.52635 13.4921C1.50023 13.4921 1.48281 13.4921 1.45669 13.4921C1.16936 13.457 0.969093 13.1943 1.00393 12.9053L1.49151 9.09583C1.51762 8.79809 1.77012 8.59666 2.05746 8.62293Z" fill="#032E49" stroke="#032E49" stroke-width="0.7"/>
</svg>
