<svg width="14" height="14" viewBox="0 0 14 14" fill="none" xmlns="http://www.w3.org/2000/svg">
<path fill-rule="evenodd" clip-rule="evenodd" d="M10.3359 9.28631L13.7871 12.7518C14.0791 13.045 14.0694 13.5124 13.766 13.7943C13.6232 13.927 13.4351 14 13.2368 14C13.0273 14 12.8318 13.9196 12.6864 13.7739L9.20899 10.2821C8.22158 10.9521 7.06667 11.305 5.85474 11.305C2.62649 11.305 0 8.76923 0 5.65249C0 2.53576 2.62649 0 5.85474 0C9.08299 0 11.7095 2.53576 11.7095 5.65249C11.7095 6.98648 11.2233 8.26788 10.3359 9.28631ZM10.1821 5.65249C10.1821 3.34873 8.24092 1.47456 5.85474 1.47456C3.46855 1.47456 1.52732 3.34873 1.52732 5.65249C1.52732 7.95625 3.46855 9.83043 5.85474 9.83043C8.24092 9.83043 10.1821 7.95625 10.1821 5.65249Z" fill="white"/>
</svg>
