<svg width="20" height="17" viewBox="0 0 20 17" fill="none" xmlns="http://www.w3.org/2000/svg">
<path d="M17.7916 4.80603L17.7916 4.80605C18.3134 5.33751 18.5973 5.85937 18.7026 6.35526C18.8084 6.85363 18.7205 7.26373 18.6023 7.54581C18.4848 7.82806 18.2556 8.1797 17.8271 8.45599C17.401 8.73068 16.8313 8.89656 16.0879 8.90049M17.7916 4.80603L9.5819 1.53589C8.90766 1.52653 8.2582 1.78879 7.78176 2.26911L1.82958 8.218L1.82944 8.21814C1.05685 8.99073 1.05685 10.2443 1.82944 11.0169L1.82966 11.0171L5.78523 14.9694C6.55781 15.7419 7.81136 15.7419 8.58394 14.9694L14.5341 9.01925C14.616 8.93727 14.6916 8.85012 14.7605 8.75881C15.2167 8.85273 15.6659 8.90317 16.0879 8.90049M17.7916 4.80603L17.7867 4.80117L17.7572 4.77162L17.7572 4.77161C17.1199 4.13434 16.2283 3.57609 15.2507 3.17019L15.2487 3.16937C15.2121 3.15431 15.1757 3.1396 15.1394 3.1252C14.8985 2.24581 14.1 1.59816 13.1467 1.58517C13.1466 1.58517 13.1466 1.58517 13.1465 1.58517L9.58195 1.53589L17.7916 4.80603ZM16.0879 8.90049C16.0877 8.90049 16.0875 8.9005 16.0874 8.9005L16.0835 8.15051L16.0883 8.90049C16.0882 8.90049 16.088 8.90049 16.0879 8.90049ZM15.7148 6.34499C15.5741 6.33073 15.418 6.30694 15.2474 6.27096L15.2465 6.205L15.2438 6.01065C15.4184 6.12032 15.5767 6.23292 15.7148 6.34499ZM16.2208 6.89951C16.2208 6.89952 16.2206 6.89914 16.2203 6.89837L16.2208 6.89951ZM11.8854 5.17059L11.8763 5.2312L11.8021 5.32402C11.802 5.3241 11.8019 5.32418 11.8018 5.32426L11.7942 5.33286C11.689 5.42477 11.5295 5.42059 11.4292 5.3203C11.3294 5.2205 11.3263 5.05141 11.4325 4.94518C11.5372 4.84052 11.7063 4.84052 11.8109 4.94518C11.8723 5.00658 11.8975 5.09072 11.8854 5.17059Z" stroke="white" stroke-width="1.5"/>
<path d="M10 8.5C10 9.88071 8.88071 11 7.5 11C6.11929 11 5 9.88071 5 8.5C5 7.11929 6.11929 6 7.5 6C8.88071 6 10 7.11929 10 8.5Z" fill="white"/>
<path d="M10 8.5C10 9.88071 8.88071 11 7.5 11C6.11929 11 5 9.88071 5 8.5C5 7.11929 6.11929 6 7.5 6C8.88071 6 10 7.11929 10 8.5Z" fill="white"/>
<path d="M10 8.5C10 9.88071 8.88071 11 7.5 11C6.11929 11 5 9.88071 5 8.5C5 7.11929 6.11929 6 7.5 6C8.88071 6 10 7.11929 10 8.5Z" fill="white"/>
<path d="M10 8.5C10 9.88071 8.88071 11 7.5 11C6.11929 11 5 9.88071 5 8.5C5 7.11929 6.11929 6 7.5 6C8.88071 6 10 7.11929 10 8.5Z" fill="white"/>
</svg>
