<svg width="14" height="18" viewBox="0 0 14 18" fill="none" xmlns="http://www.w3.org/2000/svg">
<path d="M10.6189 3.80442C10.6178 2.82525 10.2283 1.88652 9.53589 1.19414C8.84351 0.501756 7.90478 0.11226 6.92561 0.111084C5.94663 0.112554 5.00818 0.50218 4.31605 1.19453C3.62391 1.88688 3.23456 2.82544 3.23339 3.80442C3.23456 4.78359 3.62406 5.72232 4.31644 6.4147C5.00882 7.10708 5.94755 7.49657 6.92672 7.49775C7.90589 7.49657 8.84462 7.10708 9.537 6.4147C10.2294 5.72232 10.6189 4.78359 10.6201 3.80442H10.6189ZM6.92561 7.49775C5.16295 7.49981 3.47309 8.20101 2.2268 9.44751C0.980516 10.694 0.279596 12.384 0.277832 14.1466V14.8389C0.277832 15.0489 0.366721 15.2489 0.523388 15.3889C2.32339 17 4.59672 17.8889 6.92561 17.8889C9.25561 17.8889 11.5289 17 13.3289 15.3889C13.406 15.3195 13.4676 15.2346 13.5097 15.1399C13.5518 15.0451 13.5735 14.9426 13.5734 14.8389V14.1466C13.5716 12.384 12.8707 10.694 11.6244 9.44751C10.3781 8.20101 8.68827 7.49981 6.92561 7.49775Z" fill="#00F6D2"/>
</svg>
