<svg width="20" height="16" viewBox="0 0 20 16" fill="none" xmlns="http://www.w3.org/2000/svg">
<path fill-rule="evenodd" clip-rule="evenodd" d="M19.4133 4.50994H15.6836C13.6835 4.50994 12.0546 6.13914 12.0547 8.14674C12.0547 10.1467 13.6842 11.7762 15.6842 11.7762H19.4139V14.7106C19.4139 15.3594 18.8887 15.8845 18.24 15.8845H2.35527C1.05026 15.8845 0 14.8264 0 13.5292L2.06178e-06 3.00402C2.51053e-06 1.34717 1.34315 0 3 0H18.2394C18.8883 0 19.4133 0.525242 19.4133 1.17386V4.50994ZM15.6833 5.97697H19.7066C19.8687 5.97697 20 6.10814 20 6.26276V9.99249C20 10.1545 19.8688 10.2859 19.7066 10.2859H15.6833C14.4941 10.2859 13.5289 9.32059 13.5289 8.13142C13.5289 6.94224 14.4941 5.97697 15.6833 5.97697ZM15.2972 8.13918C15.2972 8.6256 15.6911 9.01947 16.1775 9.01947C16.6639 9.01947 17.0578 8.62559 17.0578 8.13918C17.0578 7.65276 16.6639 7.2589 16.1775 7.2589C15.6911 7.2589 15.2972 7.65277 15.2972 8.13918Z" fill="#00F6D2"/>
</svg>
