<svg id="e1yT0oVRwSU1" xmlns="http://www.w3.org/2000/svg" xmlns:xlink="http://www.w3.org/1999/xlink" viewBox="0 0 266 161" shape-rendering="geometricPrecision" text-rendering="geometricPrecision"><defs><linearGradient id="e1yT0oVRwSU10-stroke" x1="217.5" y1="25" x2="217.5" y2="54" spreadMethod="pad" gradientUnits="userSpaceOnUse" gradientTransform="translate(0 0)"><stop id="e1yT0oVRwSU10-stroke-0" offset="0%" stop-color="#a17dff"/><stop id="e1yT0oVRwSU10-stroke-1" offset="100%" stop-color="#6f7fff"/></linearGradient><linearGradient id="e1yT0oVRwSU19-stroke" x1="95.5" y1="139" x2="95.5" y2="160" spreadMethod="pad" gradientUnits="userSpaceOnUse" gradientTransform="translate(0 0)"><stop id="e1yT0oVRwSU19-stroke-0" offset="0%" stop-color="#a17dff"/><stop id="e1yT0oVRwSU19-stroke-1" offset="100%" stop-color="#6f7fff"/></linearGradient><radialGradient id="e1yT0oVRwSU27-fill" cx="0" cy="0" r="1" spreadMethod="pad" gradientUnits="userSpaceOnUse" gradientTransform="matrix(11.5 0 0 11.5 85.5 45.5)"><stop id="e1yT0oVRwSU27-fill-0" offset="0%" stop-color="#008471"/><stop id="e1yT0oVRwSU27-fill-1" offset="100%" stop-color="#103051"/></radialGradient><radialGradient id="e1yT0oVRwSU30-fill" cx="0" cy="0" r="1" spreadMethod="pad" gradientUnits="userSpaceOnUse" gradientTransform="matrix(16.5 0 0 16.5 161.5 129.5)"><stop id="e1yT0oVRwSU30-fill-0" offset="0%" stop-color="#008471"/><stop id="e1yT0oVRwSU30-fill-1" offset="100%" stop-color="#103051"/></radialGradient><linearGradient id="e1yT0oVRwSU34-fill" x1="234" y1="85" x2="178" y2="85" spreadMethod="pad" gradientUnits="userSpaceOnUse" gradientTransform="translate(0 0)"><stop id="e1yT0oVRwSU34-fill-0" offset="0%" stop-color="#00f6d2"/><stop id="e1yT0oVRwSU34-fill-1" offset="100%" stop-color="#307df6"/></linearGradient></defs><path id="e1yT0oVRwSU2" d="M101,108c3.314,0,6-2.686,6-6c0-3.3137-2.686-6-6-6-3.3137,0-6,2.6863-6,6c0,3.314,2.6863,6,6,6Z" opacity="0" fill="#9f7dff"/><path id="e1yT0oVRwSU3" d="M156,74c3.314,0,6-2.6863,6-6s-2.686-6-6-6-6,2.6863-6,6s2.686,6,6,6Z" opacity="0" fill="#5ac0f9"/><path id="e1yT0oVRwSU4" d="M8.5,57c-.744,0-1.346.603-1.346,1.347v.909c0,.743.602,1.347,1.346,1.347s1.346-.604,1.346-1.347v-.908C9.846,57.603,9.244,57,8.5,57Zm0,13.398c-.744,0-1.346.603-1.346,1.347v.907C7.154,73.396,7.756,74,8.5,74s1.346-.604,1.346-1.348v-.907c0-.744-.602-1.347-1.346-1.347Zm4.417-7.967c.345,0,.69-.131.953-.395l.64-.64c.526-.526.526-1.38,0-1.905-.525-.527-1.377-.527-1.902-.003l-.642.642c-.526.526-.526,1.38,0,1.905.262.264.607.396.952.396h-.001ZM3.131,68.963l-.64.64c-.526.526-.527,1.38-.002,1.906.263.264.608.395.953.395.344,0,.688-.131.951-.394l.642-.64c.525-.526.526-1.38,0-1.906-.525-.526-1.377-.527-1.904,0v-.001Zm12.523-4.81h-.908c-.742,0-1.346.603-1.346,1.347s.604,1.347,1.346,1.347h.908c.744,0,1.346-.603,1.346-1.347s-.602-1.347-1.346-1.347ZM3.6,65.5c0-.744-.603-1.347-1.346-1.347h-.908C0.602,64.153,0,64.756,0,65.5s.602,1.347,1.346,1.347h.908c.743,0,1.346-.603,1.346-1.347Zm10.27,3.463c-.527-.526-1.38-.525-1.906,0-.524.528-.524,1.38.002,1.907l.642.64c.262.263.607.394.951.394s.69-.131.953-.395c.524-.527.524-1.38-.002-1.906l-.641-.64h.001ZM3.13,62.036c.264.264.608.395.952.395s.69-.132.953-.396c.525-.526.524-1.379-.001-1.905l-.642-.642c-.526-.524-1.378-.524-1.904.003-.525.526-.524,1.379.001,1.905l.641.64Z" transform="matrix(0-1 1 0-57 74)" opacity="0" fill="#ffb657"/><path id="e1yT0oVRwSU5" d="M253.5,113c-1.094,0-1.979.887-1.979,1.981v1.337c0,1.092.885,1.981,1.979,1.981s1.979-.889,1.979-1.981v-1.336c0-1.095-.885-1.982-1.979-1.982Zm0,19.703c-1.094,0-1.979.887-1.979,1.981v1.334c0,1.094.885,1.982,1.979,1.982s1.979-.888,1.979-1.982v-1.334c0-1.094-.885-1.981-1.979-1.981Zm6.496-11.716c.507,0,1.014-.193,1.401-.581l.941-.941c.774-.774.774-2.03,0-2.802-.772-.775-2.025-.775-2.797-.004l-.944.944c-.773.773-.773,2.029,0,2.801.385.389.893.583,1.4.583h-.001Zm-14.392,9.606l-.941.941c-.773.773-.775,2.029-.003,2.803.387.388.894.581,1.402.581.506,0,1.012-.193,1.398-.58l.944-.941c.772-.773.774-2.029,0-2.803-.772-.773-2.025-.775-2.8,0v-.001Zm18.417-7.074h-1.336c-1.091,0-1.979.887-1.979,1.981s.888,1.981,1.979,1.981h1.336c1.094,0,1.979-.887,1.979-1.981s-.885-1.981-1.979-1.981ZM246.294,125.5c0-1.094-.887-1.981-1.979-1.981h-1.336c-1.094,0-1.979.887-1.979,1.981s.885,1.981,1.979,1.981h1.336c1.092,0,1.979-.887,1.979-1.981Zm15.103,5.093c-.775-.774-2.029-.772-2.803,0-.77.776-.77,2.029.003,2.804l.944.941c.385.387.893.58,1.399.58s1.014-.193,1.401-.581c.771-.775.771-2.03-.003-2.803l-.942-.941h.001Zm-15.794-10.187c.388.388.894.581,1.4.581s1.015-.194,1.401-.583c.772-.773.771-2.028-.001-2.801l-.944-.944c-.774-.771-2.027-.771-2.8.004-.772.774-.771,2.028.001,2.802l.943.941Z" transform="matrix(0 1-1 0 379-128)" opacity="0" fill="#ffb657"/><path id="e1yT0oVRwSU6" d="M148.041,17.6181l3.135,5.7333c.11.1997.273.3621.473.4721l5.733,3.1358c.824.4501.824,1.6313,0,2.0814l-5.733,3.1358c-.2.11-.363.2724-.473.4721l-3.135,5.7333c-.45.8241-1.632.8241-2.082,0l-3.135-5.7333c-.11-.1997-.273-.3621-.473-.4721l-5.733-3.1358c-.824-.4501-.824-1.6313,0-2.0814l5.733-3.1358c.2-.1083.363-.2724.473-.4721l3.135-5.7333c.45-.8241,1.632-.8241,2.082,0Z" transform="matrix(0 0 0 0 147 28.000001)" opacity="0" fill="#1094ff"/><path id="e1yT0oVRwSU7" d="M40.4731,118.281l1.4253,2.606c.05.091.1238.165.2146.215l2.606,1.425c.3746.205.3746.741,0,.946l-2.606,1.425c-.0908.05-.1646.124-.2146.215l-1.4253,2.606c-.2046.375-.7416.375-.9462,0l-1.4253-2.606c-.05-.091-.1238-.165-.2146-.215l-2.606-1.425c-.3747-.205-.3747-.741,0-.946l2.606-1.425c.0908-.05.1646-.124.2146-.215l1.4253-2.606c.2046-.375.7416-.375.9462,0Z" opacity="0" fill="#084a90"/><path id="e1yT0oVRwSU8" d="M43.7569,0.449521L46.0374,4.61921c.08.14522.1982.26337.3434.34337l4.1697,2.28053c.5993.32737.5993,1.18641,0,1.51378L46.3808,11.0374c-.1452.08-.2634.1982-.3434.3434l-2.2805,4.1697c-.3274.5993-1.1864.5993-1.5138,0l-2.2805-4.1697c-.08-.1452-.1982-.2634-.3434-.3434L35.4495,8.75689c-.5993-.32737-.5993-1.18641,0-1.51378l4.1697-2.28053c.1452-.07877.2634-.19815.3434-.34337l2.2805-4.169689c.3274-.599361,1.1864-.599361,1.5138,0Z" opacity="0" fill="#084a90"/><g id="e1yT0oVRwSU9" transform="matrix(0 0 0 0 217.5 39.5)" opacity="0"><path d="M217.5,54c8.008,0,14.5-6.4919,14.5-14.5s-6.492-14.5-14.5-14.5-14.5,6.4919-14.5,14.5s6.492,14.5,14.5,14.5Z" fill="#000a16" stroke="url(#e1yT0oVRwSU10-stroke)" stroke-width="3"/><g><path d="M217.511,30.5418l7.64,13.164h-15.282l7.642-13.164Zm0,4.349l-3.873,6.65h7.743l-3.87-6.65Z" fill="#0b76ff"/><g style="mix-blend-mode:lighten"><path d="M217.508,48.0737l-7.64-13.164h15.282l-7.642,13.164Zm0-4.348l3.873-6.651h-7.743l3.87,6.65v.001Z" fill="#00e3c2"/></g><path d="M213.118,31.7197L226.317,39.3l-13.235,7.641.036-15.2213Zm2.175,3.7663l-.029,7.6956l6.705-3.8715-6.676-3.8241Z" fill="#25c0ff"/><g style="mix-blend-mode:lighten"><path d="M221.882,46.904l-13.199-7.5803l13.235-7.641-.036,15.2213Zm-2.174-3.7654l.028-7.6965-6.705,3.8715l6.676,3.8241.001.0009Z" fill="#ff51ff"/></g></g></g><g id="e1yT0oVRwSU18" transform="matrix(0 0 0 0 95.5 149.5)" opacity="0"><path d="M95.5,160c5.799,0,10.5-4.701,10.5-10.5s-4.701-10.5-10.5-10.5-10.5,4.701-10.5,10.5s4.701,10.5,10.5,10.5Z" fill="#000a16" stroke="url(#e1yT0oVRwSU19-stroke)" stroke-width="2"/><path d="M95.5079,143.013l5.5321,9.533h-11.066l5.5339-9.533Zm0,3.149l-2.8046,4.816h5.607l-2.8024-4.816Z" fill="#0b76ff"/><g style="mix-blend-mode:lighten"><path d="M95.5056,155.708l-5.5324-9.532h11.0658l-5.5334,9.532Zm0-3.148l2.8046-4.816h-5.607l2.8024,4.815v.001Z" fill="#00e3c2"/></g><path d="M92.3266,143.866l9.5574,5.489-9.5835,5.533.0261-11.022Zm1.5747,2.727l-.0211,5.573l4.8558-2.804-4.8347-2.769Z" fill="#25c0ff"/><g style="mix-blend-mode:lighten"><path d="M98.6732,154.862l-9.5575-5.49l9.5837-5.533-.0262,11.023Zm-1.5742-2.727l.0207-5.573-4.8558,2.803l4.8347,2.769.0004.001Z" fill="#ff51ff"/></g></g><g id="e1yT0oVRwSU26" transform="matrix(0 0 0 0 85.5 45.5)" opacity="0"><path d="M96,45.5C96,51.299,91.299,56,85.5,56s-10.5-4.701-10.5-10.5s4.701-10.5,10.5-10.5s10.5,4.701,10.5,10.5Z" fill="url(#e1yT0oVRwSU27-fill)" stroke="#00f6d2" stroke-width="2"/><path d="M85.5265,39.3077l-.0126.0216-.0127-.0216v.0431l-2.752,4.6977-3.4415-1.4739v3.2663l2.4198-.0484-2.4198,4.1306h6.1923.0277h6.1923l-2.4299-4.1479l3.2868.0657v-3.2663l-4.1265,1.7673-2.9239-4.9911v-.0431Zm1.3428,5.7112l-1.3554-2.3523-1.1859,2.058.6346.2718.5378-.9557v-.0278l.0078.0139.0079-.0138v.0277l.7064,1.2553.6468-.2771Zm-2.3231.7173l-.9977,1.7728l1.9671-.0038h.0005l1.9519.0038-1.0076-1.7903.8216.0164l1.3921,2.4158-3.1464-.0011h-.0277l-3.1463.0011l1.382-2.3985.8105-.0162Z" clip-rule="evenodd" fill="#fff" fill-rule="evenodd"/></g><g id="e1yT0oVRwSU29" transform="matrix(0 0 0 0 161.5 129.5)" opacity="0"><path d="M176.5,129.5c0,8.284-6.716,15-15,15s-15-6.716-15-15s6.716-15,15-15s15,6.716,15,15Z" fill="url(#e1yT0oVRwSU30-fill)" stroke="#00f6d2" stroke-width="3"/><path d="M161.538,120.615l-.018.031-.018-.031v.062l-3.949,6.74-4.938-2.114v4.686l3.472-.069-3.472,5.926h8.885.04h8.884l-3.486-5.951l4.716.094v-4.686l-5.921,2.535-4.195-7.161v-.062Zm1.927,8.195l-1.945-3.375-1.702,2.952.911.39.772-1.371v-.04l.011.02.011-.02v.04l1.014,1.801.928-.397Zm-3.334,1.029l-1.431,2.544l2.822-.006h.001l2.8.006-1.445-2.569l1.179.023l1.997,3.467-4.514-.002h-.04l-4.514.002l1.983-3.442l1.162-.023Z" clip-rule="evenodd" fill="#fff" fill-rule="evenodd"/></g><g id="e1yT0oVRwSU32" style="mix-blend-mode:overlay" transform="matrix(0 0 0 0 136.412004 85.2015)" opacity="0"><path d="M218.623,70h-164.4214C45.8058,70,39,76.8058,39,85.2016c0,8.3952,6.8058,15.2014,15.2016,15.2014h164.4214c8.396,0,15.201-6.8062,15.201-15.2014C233.824,76.8058,227.019,70,218.623,70Z" clip-rule="evenodd" fill="#0e46a0" fill-rule="evenodd"/></g><path id="e1yT0oVRwSU34" d="M218.623,70h-40.419v30.403h40.419c8.396,0,15.201-6.8062,15.201-15.202c0-8.3952-6.805-15.201-15.201-15.201Z" transform="translate(-50.014 0)" opacity="0" clip-rule="evenodd" fill="url(#e1yT0oVRwSU34-fill)" fill-rule="evenodd"/><path id="e1yT0oVRwSU35" d="M203.251,78.3569c-3.255,0-5.894,2.6401-5.894,5.8945c0,3.2554,2.639,5.8933,5.894,5.8933c3.256,0,5.894-2.6379,5.894-5.8933c0-3.2544-2.638-5.8945-5.894-5.8945ZM213.31,94.31c-.691.6904-1.81.6904-2.5,0l-3.121-3.1209c-1.284.8219-2.801,1.3131-4.438,1.3131-4.557,0-8.251-3.6943-8.251-8.2509C195,79.6943,198.694,76,203.251,76s8.252,3.6943,8.252,8.2513c0,1.6371-.491,3.154-1.313,4.4381l3.12,3.1203c.69.6909.69,1.8094,0,2.5003Z" transform="translate(41 0)" opacity="0" clip-rule="evenodd" fill="#fff" fill-rule="evenodd"/><path id="e1yT0oVRwSU36" d="M58.988,89h-1.26v-3.624c0-.8-.388-1.2-1.164-1.2-.304,0-.588.076-.852.228s-.476.336-.636.552v4.044h-1.26v-5.796h1.26v.792c.216-.256.504-.476.864-.66s.752-.276,1.176-.276c.616,0,1.08.16,1.392.48.32.32.48.78.48,1.38v4.08Zm6.4366,0h-1.26v-.624c-.448.512-1.072.768-1.872.768-.528,0-.996-.168-1.404-.504-.408-.344-.612-.816-.612-1.416c0-.616.2-1.084.6-1.404.408-.32.88-.48,1.416-.48.824,0,1.448.248,1.872.744v-.864c0-.336-.124-.6-.372-.792s-.576-.288-.984-.288c-.648,0-1.22.244-1.716.732l-.516-.876c.656-.624,1.468-.936,2.436-.936.712,0,1.292.168,1.74.504s.672.868.672,1.596v3.84Zm-2.64-.72c.632,0,1.092-.2,1.38-.6v-.876c-.288-.4-.748-.6-1.38-.6-.36,0-.656.096-.888.288s-.348.444-.348.756.116.564.348.756c.232.184.528.276.888.276ZM75.4222,89h-1.26v-3.78c0-.696-.316-1.044-.948-1.044-.264,0-.52.076-.768.228s-.44.332-.576.54v4.056h-1.26v-3.78c0-.696-.32-1.044-.96-1.044-.256,0-.508.076-.756.228-.24.152-.432.336-.576.552v4.044h-1.26v-5.796h1.26v.792c.144-.216.392-.424.744-.624.36-.208.74-.312,1.14-.312.84,0,1.368.356,1.584,1.068.184-.288.456-.536.816-.744.36-.216.744-.324,1.152-.324c1.112,0,1.668.584,1.668,1.752v4.188Zm4.3081.144c-.88,0-1.608-.28-2.184-.84-.568-.568-.852-1.304-.852-2.208c0-.848.276-1.564.828-2.148.56-.592,1.264-.888,2.112-.888.856,0,1.544.296,2.064.888.528.592.792,1.348.792,2.268v.3h-4.476c.048.456.236.836.564,1.14s.756.456,1.284.456c.296,0,.592-.056.888-.168.304-.112.556-.268.756-.468l.576.828c-.584.56-1.368.84-2.352.84Zm1.536-3.516c-.016-.4-.164-.756-.444-1.068-.272-.312-.668-.468-1.188-.468-.496,0-.884.156-1.164.468-.28.304-.436.66-.468,1.068h3.264Zm3.6451,3.264c-.168.16-.364.24-.588.24s-.42-.08-.588-.24c-.168-.168-.252-.368-.252-.6s.084-.428.252-.588c.168-.168.364-.252.588-.252s.42.084.588.252c.168.16.252.356.252.588s-.084.432-.252.6Zm2.9654-1.632c.136.216.344.4.624.552.288.144.576.216.864.216.496,0,.892-.176,1.188-.528.304-.36.456-.824.456-1.392s-.152-1.032-.456-1.392c-.296-.36-.692-.54-1.188-.54-.288,0-.572.076-.852.228s-.492.34-.636.564v2.292Zm0,1.74h-1.26v-8.004h1.26v3.012c.472-.632,1.092-.948,1.86-.948.752,0,1.368.28,1.848.84.48.552.72,1.288.72,2.208c0,.936-.24,1.676-.72,2.22s-1.096.816-1.848.816c-.76,0-1.38-.312-1.86-.936v.792Zm8.3886.144c-.88,0-1.608-.28-2.184-.84-.568-.568-.852-1.304-.852-2.208c0-.848.276-1.564.828-2.148.56-.592,1.264-.888,2.112-.888.856,0,1.544.296,2.064.888.528.592.792,1.348.792,2.268v.3h-4.476c.048.456.236.836.564,1.14s.756.456,1.284.456c.296,0,.592-.056.888-.168.304-.112.556-.268.756-.468l.576.828c-.584.56-1.368.84-2.352.84Zm1.536-3.516c-.016-.4-.164-.756-.444-1.068-.272-.312-.668-.468-1.188-.468-.496,0-.884.156-1.164.468-.28.304-.436.66-.468,1.068h3.264ZM105.069,89h-1.26v-.624c-.448.512-1.072.768-1.872.768-.528,0-.996-.168-1.404-.504-.408-.344-.6119-.816-.6119-1.416c0-.616.1999-1.084.5999-1.404.408-.32.88-.48,1.416-.48.824,0,1.448.248,1.872.744v-.864c0-.336-.124-.6-.372-.792s-.576-.288-.984-.288c-.648,0-1.22.244-1.716.732l-.516-.876c.656-.624,1.468-.936,2.436-.936.712,0,1.292.168,1.74.504s.672.868.672,1.596v3.84Zm-2.64-.72c.632,0,1.092-.2,1.38-.6v-.876c-.288-.4-.748-.6-1.38-.6-.36,0-.656.096-.888.288s-.348.444-.348.756.116.564.348.756c.232.184.528.276.888.276Zm12.638.72h-1.26v-3.78c0-.696-.316-1.044-.948-1.044-.264,0-.52.076-.768.228s-.44.332-.576.54v4.056h-1.26v-3.78c0-.696-.32-1.044-.96-1.044-.256,0-.508.076-.756.228-.24.152-.432.336-.576.552v4.044h-1.26v-5.796h1.26v.792c.144-.216.392-.424.744-.624.36-.208.74-.312,1.14-.312.84,0,1.368.356,1.584,1.068.184-.288.456-.536.816-.744.36-.216.744-.324,1.152-.324c1.112,0,1.668.584,1.668,1.752v4.188Z" transform="translate(-80.066977 0)" opacity="0" fill="#fff"/><script><![CDATA[!function(t,n){"object"==typeof exports&&"undefined"!=typeof module?module.exports=n():"function"==typeof define&&define.amd?define(n):((t="undefined"!=typeof globalThis?globalThis:t||self).__SVGATOR_PLAYER__=t.__SVGATOR_PLAYER__||{},t.__SVGATOR_PLAYER__["5c7f360c"]=n())}(this,(function(){"use strict";function t(t,n){var e=Object.keys(t);if(Object.getOwnPropertySymbols){var r=Object.getOwnPropertySymbols(t);n&&(r=r.filter((function(n){return Object.getOwnPropertyDescriptor(t,n).enumerable}))),e.push.apply(e,r)}return e}function n(n){for(var e=1;e<arguments.length;e++){var r=null!=arguments[e]?arguments[e]:{};e%2?t(Object(r),!0).forEach((function(t){o(n,t,r[t])})):Object.getOwnPropertyDescriptors?Object.defineProperties(n,Object.getOwnPropertyDescriptors(r)):t(Object(r)).forEach((function(t){Object.defineProperty(n,t,Object.getOwnPropertyDescriptor(r,t))}))}return n}function e(t){return(e="function"==typeof Symbol&&"symbol"==typeof Symbol.iterator?function(t){return typeof t}:function(t){return t&&"function"==typeof Symbol&&t.constructor===Symbol&&t!==Symbol.prototype?"symbol":typeof t})(t)}function r(t,n){if(!(t instanceof n))throw new TypeError("Cannot call a class as a function")}function i(t,n){for(var e=0;e<n.length;e++){var r=n[e];r.enumerable=r.enumerable||!1,r.configurable=!0,"value"in r&&(r.writable=!0),Object.defineProperty(t,r.key,r)}}function u(t,n,e){return n&&i(t.prototype,n),e&&i(t,e),t}function o(t,n,e){return n in t?Object.defineProperty(t,n,{value:e,enumerable:!0,configurable:!0,writable:!0}):t[n]=e,t}function a(t){return(a=Object.setPrototypeOf?Object.getPrototypeOf:function(t){return t.__proto__||Object.getPrototypeOf(t)})(t)}function l(t,n){return(l=Object.setPrototypeOf||function(t,n){return t.__proto__=n,t})(t,n)}function s(){if("undefined"==typeof Reflect||!Reflect.construct)return!1;if(Reflect.construct.sham)return!1;if("function"==typeof Proxy)return!0;try{return Boolean.prototype.valueOf.call(Reflect.construct(Boolean,[],(function(){}))),!0}catch(t){return!1}}function f(t,n,e){return(f=s()?Reflect.construct:function(t,n,e){var r=[null];r.push.apply(r,n);var i=new(Function.bind.apply(t,r));return e&&l(i,e.prototype),i}).apply(null,arguments)}function c(t,n){if(n&&("object"==typeof n||"function"==typeof n))return n;if(void 0!==n)throw new TypeError("Derived constructors may only return object or undefined");return function(t){if(void 0===t)throw new ReferenceError("this hasn't been initialised - super() hasn't been called");return t}(t)}function h(t,n,e){return(h="undefined"!=typeof Reflect&&Reflect.get?Reflect.get:function(t,n,e){var r=function(t,n){for(;!Object.prototype.hasOwnProperty.call(t,n)&&null!==(t=a(t)););return t}(t,n);if(r){var i=Object.getOwnPropertyDescriptor(r,n);return i.get?i.get.call(e):i.value}})(t,n,e||t)}function v(t){return function(t){if(Array.isArray(t))return y(t)}(t)||function(t){if("undefined"!=typeof Symbol&&null!=t[Symbol.iterator]||null!=t["@@iterator"])return Array.from(t)}(t)||function(t,n){if(!t)return;if("string"==typeof t)return y(t,n);var e=Object.prototype.toString.call(t).slice(8,-1);"Object"===e&&t.constructor&&(e=t.constructor.name);if("Map"===e||"Set"===e)return Array.from(t);if("Arguments"===e||/^(?:Ui|I)nt(?:8|16|32)(?:Clamped)?Array$/.test(e))return y(t,n)}(t)||function(){throw new TypeError("Invalid attempt to spread non-iterable instance.\nIn order to be iterable, non-array objects must have a [Symbol.iterator]() method.")}()}function y(t,n){(null==n||n>t.length)&&(n=t.length);for(var e=0,r=new Array(n);e<n;e++)r[e]=t[e];return r}Number.isInteger||(Number.isInteger=function(t){return"number"==typeof t&&isFinite(t)&&Math.floor(t)===t}),Number.EPSILON||(Number.EPSILON=2220446049250313e-31);var g=d(Math.pow(10,-6));function d(t){var n=arguments.length>1&&void 0!==arguments[1]?arguments[1]:6;if(Number.isInteger(t))return t;var e=Math.pow(10,n);return Math.round((+t+Number.EPSILON)*e)/e}function p(t,n){var e=arguments.length>2&&void 0!==arguments[2]?arguments[2]:g;return Math.abs(t-n)<e}var m=Math.PI/180;function b(t){return t}function w(t,n,e){var r=1-e;return 3*e*r*(t*r+n*e)+e*e*e}function x(){var t=arguments.length>0&&void 0!==arguments[0]?arguments[0]:0,n=arguments.length>1&&void 0!==arguments[1]?arguments[1]:0,e=arguments.length>2&&void 0!==arguments[2]?arguments[2]:1,r=arguments.length>3&&void 0!==arguments[3]?arguments[3]:1;return t<0||t>1||e<0||e>1?null:p(t,n)&&p(e,r)?b:function(i){if(i<=0)return t>0?i*n/t:0===n&&e>0?i*r/e:0;if(i>=1)return e<1?1+(i-1)*(r-1)/(e-1):1===e&&t<1?1+(i-1)*(n-1)/(t-1):1;for(var u,o=0,a=1;o<a;){var l=w(t,e,u=(o+a)/2);if(p(i,l))break;l<i?o=u:a=u}return w(n,r,u)}}function A(){return 1}function k(t){return 1===t?1:0}function _(){var t=arguments.length>0&&void 0!==arguments[0]?arguments[0]:1,n=arguments.length>1&&void 0!==arguments[1]?arguments[1]:0;if(1===t){if(0===n)return k;if(1===n)return A}var e=1/t;return function(t){return t>=1?1:(t+=n*e)-t%e}}var S=Math.sin,O=Math.cos,j=Math.acos,M=Math.asin,P=Math.tan,E=Math.atan2,I=Math.PI/180,R=180/Math.PI,F=Math.sqrt,N=function(){function t(){var n=arguments.length>0&&void 0!==arguments[0]?arguments[0]:1,e=arguments.length>1&&void 0!==arguments[1]?arguments[1]:0,i=arguments.length>2&&void 0!==arguments[2]?arguments[2]:0,u=arguments.length>3&&void 0!==arguments[3]?arguments[3]:1,o=arguments.length>4&&void 0!==arguments[4]?arguments[4]:0,a=arguments.length>5&&void 0!==arguments[5]?arguments[5]:0;r(this,t),this.m=[n,e,i,u,o,a],this.i=null,this.w=null,this.s=null}return u(t,[{key:"determinant",get:function(){var t=this.m;return t[0]*t[3]-t[1]*t[2]}},{key:"isIdentity",get:function(){if(null===this.i){var t=this.m;this.i=1===t[0]&&0===t[1]&&0===t[2]&&1===t[3]&&0===t[4]&&0===t[5]}return this.i}},{key:"point",value:function(t,n){var e=this.m;return{x:e[0]*t+e[2]*n+e[4],y:e[1]*t+e[3]*n+e[5]}}},{key:"translateSelf",value:function(){var t=arguments.length>0&&void 0!==arguments[0]?arguments[0]:0,n=arguments.length>1&&void 0!==arguments[1]?arguments[1]:0;if(!t&&!n)return this;var e=this.m;return e[4]+=e[0]*t+e[2]*n,e[5]+=e[1]*t+e[3]*n,this.w=this.s=this.i=null,this}},{key:"rotateSelf",value:function(){var t=arguments.length>0&&void 0!==arguments[0]?arguments[0]:0;if(t%=360){var n=S(t*=I),e=O(t),r=this.m,i=r[0],u=r[1];r[0]=i*e+r[2]*n,r[1]=u*e+r[3]*n,r[2]=r[2]*e-i*n,r[3]=r[3]*e-u*n,this.w=this.s=this.i=null}return this}},{key:"scaleSelf",value:function(){var t=arguments.length>0&&void 0!==arguments[0]?arguments[0]:1,n=arguments.length>1&&void 0!==arguments[1]?arguments[1]:1;if(1!==t||1!==n){var e=this.m;e[0]*=t,e[1]*=t,e[2]*=n,e[3]*=n,this.w=this.s=this.i=null}return this}},{key:"skewSelf",value:function(t,n){if(n%=360,(t%=360)||n){var e=this.m,r=e[0],i=e[1],u=e[2],o=e[3];t&&(t=P(t*I),e[2]+=r*t,e[3]+=i*t),n&&(n=P(n*I),e[0]+=u*n,e[1]+=o*n),this.w=this.s=this.i=null}return this}},{key:"resetSelf",value:function(){var t=arguments.length>0&&void 0!==arguments[0]?arguments[0]:1,n=arguments.length>1&&void 0!==arguments[1]?arguments[1]:0,e=arguments.length>2&&void 0!==arguments[2]?arguments[2]:0,r=arguments.length>3&&void 0!==arguments[3]?arguments[3]:1,i=arguments.length>4&&void 0!==arguments[4]?arguments[4]:0,u=arguments.length>5&&void 0!==arguments[5]?arguments[5]:0,o=this.m;return o[0]=t,o[1]=n,o[2]=e,o[3]=r,o[4]=i,o[5]=u,this.w=this.s=this.i=null,this}},{key:"recomposeSelf",value:function(){var t=arguments.length>0&&void 0!==arguments[0]?arguments[0]:null,n=arguments.length>1&&void 0!==arguments[1]?arguments[1]:null,e=arguments.length>2&&void 0!==arguments[2]?arguments[2]:null,r=arguments.length>3&&void 0!==arguments[3]?arguments[3]:null,i=arguments.length>4&&void 0!==arguments[4]?arguments[4]:null;return this.isIdentity||this.resetSelf(),t&&(t.x||t.y)&&this.translateSelf(t.x,t.y),n&&this.rotateSelf(n),e&&(e.x&&this.skewSelf(e.x,0),e.y&&this.skewSelf(0,e.y)),!r||1===r.x&&1===r.y||this.scaleSelf(r.x,r.y),i&&(i.x||i.y)&&this.translateSelf(i.x,i.y),this}},{key:"decompose",value:function(){var t=arguments.length>0&&void 0!==arguments[0]?arguments[0]:0,n=arguments.length>1&&void 0!==arguments[1]?arguments[1]:0,e=this.m,r=e[0]*e[0]+e[1]*e[1],i=[[e[0],e[1]],[e[2],e[3]]],u=F(r);if(0===u)return{origin:{x:d(e[4]),y:d(e[5])},translate:{x:d(t),y:d(n)},scale:{x:0,y:0},skew:{x:0,y:0},rotate:0};i[0][0]/=u,i[0][1]/=u;var o=e[0]*e[3]-e[1]*e[2]<0;o&&(u=-u);var a=i[0][0]*i[1][0]+i[0][1]*i[1][1];i[1][0]-=i[0][0]*a,i[1][1]-=i[0][1]*a;var l=F(i[1][0]*i[1][0]+i[1][1]*i[1][1]);if(0===l)return{origin:{x:d(e[4]),y:d(e[5])},translate:{x:d(t),y:d(n)},scale:{x:d(u),y:0},skew:{x:0,y:0},rotate:0};i[1][0]/=l,i[1][1]/=l,a/=l;var s=0;return i[1][1]<0?(s=j(i[1][1])*R,i[0][1]<0&&(s=360-s)):s=M(i[0][1])*R,o&&(s=-s),a=E(a,F(i[0][0]*i[0][0]+i[0][1]*i[0][1]))*R,o&&(a=-a),{origin:{x:d(e[4]),y:d(e[5])},translate:{x:d(t),y:d(n)},scale:{x:d(u),y:d(l)},skew:{x:d(a),y:0},rotate:d(s)}}},{key:"clone",value:function(){var t=this.m;return new this.constructor(t[0],t[1],t[2],t[3],t[4],t[5])}},{key:"toString",value:function(){var t=arguments.length>0&&void 0!==arguments[0]?arguments[0]:" ";if(null===this.s){var n=this.m.map((function(t){return d(t)}));1===n[0]&&0===n[1]&&0===n[2]&&1===n[3]?this.s="translate("+n[4]+t+n[5]+")":this.s="matrix("+n.join(t)+")"}return this.s}}],[{key:"create",value:function(t){return t?Array.isArray(t)?f(this,v(t)):t instanceof this?t.clone():(new this).recomposeSelf(t.origin,t.rotate,t.skew,t.scale,t.translate):new this}}]),t}();function T(t,n,e){return t>=.5?e:n}function q(t,n,e){return 0===t||n===e?n:t*(e-n)+n}function B(t,n,e){var r=q(t,n,e);return r<=0?0:r}function L(t,n,e){var r=q(t,n,e);return r<=0?0:r>=1?1:r}function C(t,n,e){return 0===t?n:1===t?e:{x:q(t,n.x,e.x),y:q(t,n.y,e.y)}}function D(t,n,e){var r=function(t,n,e){return Math.round(q(t,n,e))}(t,n,e);return r<=0?0:r>=255?255:r}function z(t,n,e){return 0===t?n:1===t?e:{r:D(t,n.r,e.r),g:D(t,n.g,e.g),b:D(t,n.b,e.b),a:q(t,null==n.a?1:n.a,null==e.a?1:e.a)}}function V(t,n){for(var e=[],r=0;r<t;r++)e.push(n);return e}function G(t,n){if(--n<=0)return t;var e=(t=Object.assign([],t)).length;do{for(var r=0;r<e;r++)t.push(t[r])}while(--n>0);return t}var Y,$=function(){function t(n){r(this,t),this.list=n,this.length=n.length}return u(t,[{key:"setAttribute",value:function(t,n){for(var e=this.list,r=0;r<this.length;r++)e[r].setAttribute(t,n)}},{key:"removeAttribute",value:function(t){for(var n=this.list,e=0;e<this.length;e++)n[e].removeAttribute(t)}},{key:"style",value:function(t,n){for(var e=this.list,r=0;r<this.length;r++)e[r].style[t]=n}}]),t}(),U=/-./g,Q=function(t,n){return n.toUpperCase()};function H(t){return"function"==typeof t?t:T}function J(t){return t?"function"==typeof t?t:Array.isArray(t)?function(t){var n=arguments.length>1&&void 0!==arguments[1]?arguments[1]:b;if(!Array.isArray(t))return n;switch(t.length){case 1:return _(t[0])||n;case 2:return _(t[0],t[1])||n;case 4:return x(t[0],t[1],t[2],t[3])||n}return n}(t,null):function(t,n){var e=arguments.length>2&&void 0!==arguments[2]?arguments[2]:b;switch(t){case"linear":return b;case"steps":return _(n.steps||1,n.jump||0)||e;case"bezier":case"cubic-bezier":return x(n.x1||0,n.y1||0,n.x2||0,n.y2||0)||e}return e}(t.type,t.value,null):null}function Z(t,n,e){var r=arguments.length>3&&void 0!==arguments[3]&&arguments[3],i=n.length-1;if(t<=n[0].t)return r?[0,0,n[0].v]:n[0].v;if(t>=n[i].t)return r?[i,1,n[i].v]:n[i].v;var u,o=n[0],a=null;for(u=1;u<=i;u++){if(!(t>n[u].t)){a=n[u];break}o=n[u]}return null==a?r?[i,1,n[i].v]:n[i].v:o.t===a.t?r?[u,1,a.v]:a.v:(t=(t-o.t)/(a.t-o.t),o.e&&(t=o.e(t)),r?[u,t,e(t,o.v,a.v)]:e(t,o.v,a.v))}function K(t,n){var e=arguments.length>2&&void 0!==arguments[2]?arguments[2]:null;return t&&t.length?"function"!=typeof n?null:("function"!=typeof e&&(e=null),function(r){var i=Z(r,t,n);return null!=i&&e&&(i=e(i)),i}):null}function W(t,n){return t.t-n.t}function X(t,n,r,i,u){var o,a="@"===r[0],l="#"===r[0],s=Y[r],f=T;switch(a?(o=r.substr(1),r=o.replace(U,Q)):l&&(r=r.substr(1)),e(s)){case"function":if(f=s(i,u,Z,J,r,a,n,t),l)return f;break;case"string":f=K(i,H(s));break;case"object":if((f=K(i,H(s.i),s.f))&&"function"==typeof s.u)return s.u(n,f,r,a,t)}return f?function(t,n,e){if(arguments.length>3&&void 0!==arguments[3]&&arguments[3])return t instanceof $?function(r){return t.style(n,e(r))}:function(r){return t.style[n]=e(r)};if(Array.isArray(n)){var r=n.length;return function(i){var u=e(i);if(null==u)for(var o=0;o<r;o++)t[o].removeAttribute(n);else for(var a=0;a<r;a++)t[a].setAttribute(n,u)}}return function(r){var i=e(r);null==i?t.removeAttribute(n):t.setAttribute(n,i)}}(n,r,f,a):null}function tt(t,n,r,i){if(!i||"object"!==e(i))return null;var u=null,o=null;return Array.isArray(i)?o=function(t){if(!t||!t.length)return null;for(var n=0;n<t.length;n++)t[n].e&&(t[n].e=J(t[n].e));return t.sort(W)}(i):(o=i.keys,u=i.data||null),o?X(t,n,r,o,u):null}function nt(t,n,e){if(!e)return null;var r=[];for(var i in e)if(e.hasOwnProperty(i)){var u=tt(t,n,i,e[i]);u&&r.push(u)}return r.length?r:null}function et(t,n){if(!n.settings.duration||n.settings.duration<0)return null;var e,r,i,u,o,a=function(t,n){if(!n)return null;var e=[];if(Array.isArray(n))for(var r=n.length,i=0;i<r;i++){var u=n[i];if(2===u.length){var o=null;if("string"==typeof u[0])o=t.getElementById(u[0]);else if(Array.isArray(u[0])){o=[];for(var a=0;a<u[0].length;a++)if("string"==typeof u[0][a]){var l=t.getElementById(u[0][a]);l&&o.push(l)}o=o.length?1===o.length?o[0]:new $(o):null}if(o){var s=nt(t,o,u[1]);s&&(e=e.concat(s))}}}else for(var f in n)if(n.hasOwnProperty(f)){var c=t.getElementById(f);if(c){var h=nt(t,c,n[f]);h&&(e=e.concat(h))}}return e.length?e:null}(t,n.elements);return a?(e=a,r=n.settings,i=r.duration,u=e.length,o=null,function(t,n){var a=r.iterations||1/0,l=(r.alternate&&a%2==0)^r.direction>0?i:0,s=t%i,f=1+(t-s)/i;n*=r.direction,r.alternate&&f%2==0&&(n=-n);var c=!1;if(f>a)s=l,c=!0,-1===r.fill&&(s=r.direction>0?0:i);else if(n<0&&(s=i-s),s===o)return!1;o=s;for(var h=0;h<u;h++)e[h](s);return c}):null}function rt(t,n){if(Y=n,!t||!t.root||!Array.isArray(t.animations))return null;var e=function(t){for(var n=document.getElementsByTagName("svg"),e=0;e<n.length;e++)if(n[e].id===t.root&&!n[e].svgatorAnimation)return n[e].svgatorAnimation=!0,n[e];return null}(t);if(!e)return null;var r=t.animations.map((function(t){return et(e,t)})).filter((function(t){return!!t}));return r.length?{svg:e,animations:r,animationSettings:t.animationSettings,options:t.options||void 0}:null}function it(t){return+("0x"+(t.replace(/[^0-9a-fA-F]+/g,"")||27))}function ut(t,n,e){return!t||!e||n>t.length?t:t.substring(0,n)+ut(t.substring(n+1),e,e)}function ot(t){var n=arguments.length>1&&void 0!==arguments[1]?arguments[1]:27;return!t||t%n?t%n:ot(t/n,n)}function at(t,n,e){if(t&&t.length){var r=it(e),i=it(n),u=ot(r)+5,o=ut(t,ot(r,5),u);return o=o.replace(/\x7c$/g,"==").replace(/\x2f$/g,"="),o=function(t,n,e){var r=+("0x"+t.substring(0,4));t=t.substring(4);for(var i=n%r+e%27,u=[],o=0;o<t.length;o+=2)if("|"!==t[o]){var a=+("0x"+t[o]+t[o+1])-i;u.push(a)}else{var l=+("0x"+t.substring(o+1,o+1+4))-i;o+=3,u.push(l)}return String.fromCharCode.apply(String,u)}(o=(o=atob(o)).replace(/[\x41-\x5A]/g,""),i,r),o=JSON.parse(o)}}var lt=[{key:"alternate",def:!1},{key:"fill",def:1},{key:"iterations",def:0},{key:"direction",def:1},{key:"speed",def:1},{key:"fps",def:100}],st=function(){function t(n,e){var i=this,u=arguments.length>2&&void 0!==arguments[2]?arguments[2]:null;r(this,t),this._id=0,this._running=!1,this._rollingBack=!1,this._animations=n,this._settings=e,(!u||u<"2022-05-02")&&delete this._settings.speed,lt.forEach((function(t){i._settings[t.key]=i._settings[t.key]||t.def})),this.duration=e.duration,this.offset=e.offset||0,this.rollbackStartOffset=0}return u(t,[{key:"alternate",get:function(){return this._settings.alternate}},{key:"fill",get:function(){return this._settings.fill}},{key:"iterations",get:function(){return this._settings.iterations}},{key:"direction",get:function(){return this._settings.direction}},{key:"speed",get:function(){return this._settings.speed}},{key:"fps",get:function(){return this._settings.fps}},{key:"maxFiniteDuration",get:function(){return this.iterations>0?this.iterations*this.duration:this.duration}},{key:"_apply",value:function(t){for(var n=arguments.length>1&&void 0!==arguments[1]?arguments[1]:{},e=this._animations,r=e.length,i=0,u=0;u<r;u++)n[u]?i++:(n[u]=e[u](t,1),n[u]&&i++);return i}},{key:"_rollback",value:function(t){var n=this,e=1/0,r=null;this.rollbackStartOffset=t,this._rollingBack=!0,this._running=!0;this._id=window.requestAnimationFrame((function i(u){if(n._rollingBack){null==r&&(r=u);var o=Math.round(t-(u-r)*n.speed);if(o>n.duration&&e!==1/0){var a=!!n.alternate&&o/n.duration%2>1,l=o%n.duration;o=(l+=a?n.duration:0)||n.duration}var s=(n.fps?1e3/n.fps:0)*n.speed,f=Math.max(0,o);f<e-s&&(n.offset=f,e=f,n._apply(f));var c=n.iterations>0&&-1===n.fill&&o>=n.maxFiniteDuration;(o<=0||n.offset<o||c)&&n.stop(),n._id=window.requestAnimationFrame(i)}}))}},{key:"_start",value:function(){var t=this,n=arguments.length>0&&void 0!==arguments[0]?arguments[0]:0,e=-1/0,r=null,i={};this._running=!0;var u=function u(o){null==r&&(r=o);var a=Math.round((o-r)*t.speed+n),l=(t.fps?1e3/t.fps:0)*t.speed;if(a>e+l&&!t._rollingBack&&(t.offset=a,e=a,t._apply(a,i)===t._animations.length))return void t.pause(!0);t._id=window.requestAnimationFrame(u)};this._id=window.requestAnimationFrame(u)}},{key:"_pause",value:function(){this._id&&window.cancelAnimationFrame(this._id),this._running=!1}},{key:"play",value:function(){if(!this._running)return this._rollingBack?this._rollback(this.offset):this._start(this.offset)}},{key:"stop",value:function(){this._pause(),this.offset=0,this.rollbackStartOffset=0,this._rollingBack=!1,this._apply(0)}},{key:"reachedToEnd",value:function(){return this.iterations>0&&this.offset>=this.iterations*this.duration}},{key:"restart",value:function(){var t=arguments.length>0&&void 0!==arguments[0]&&arguments[0];this.stop(t),this.play(t)}},{key:"pause",value:function(){this._pause()}},{key:"reverse",value:function(){this.direction=-this.direction}}],[{key:"build",value:function(t,n){delete t.animationSettings,t.options=at(t.options,t.root,"5c7f360c"),t.animations.map((function(n){n.settings=at(n.s,t.root,"5c7f360c"),delete n.s,t.animationSettings||(t.animationSettings=n.settings)}));var e=t.version;if(!(t=rt(t,n)))return null;var r=t.options||{},i=new this(t.animations,t.animationSettings,e);return{el:t.svg,options:r,player:i}}},{key:"push",value:function(t){return this.build(t)}},{key:"init",value:function(){var t=this,n=window.__SVGATOR_PLAYER__&&window.__SVGATOR_PLAYER__["5c7f360c"];Array.isArray(n)&&n.splice(0).forEach((function(n){return t.build(n)}))}}]),t}();function ft(t){return d(t)+""}function ct(t){var n=arguments.length>1&&void 0!==arguments[1]?arguments[1]:" ";return t&&t.length?t.map(ft).join(n):""}function ht(t){if(!t)return"transparent";if(null==t.a||t.a>=1){var n=function(t){return 1===(t=parseInt(t).toString(16)).length?"0"+t:t},e=function(t){return t.charAt(0)===t.charAt(1)},r=n(t.r),i=n(t.g),u=n(t.b);return e(r)&&e(i)&&e(u)&&(r=r.charAt(0),i=i.charAt(0),u=u.charAt(0)),"#"+r+i+u}return"rgba("+t.r+","+t.g+","+t.b+","+t.a+")"}function vt(t){return t?"url(#"+t+")":"none"}!function(){for(var t=0,n=["ms","moz","webkit","o"],e=0;e<n.length&&!window.requestAnimationFrame;++e)window.requestAnimationFrame=window[n[e]+"RequestAnimationFrame"],window.cancelAnimationFrame=window[n[e]+"CancelAnimationFrame"]||window[n[e]+"CancelRequestAnimationFrame"];window.requestAnimationFrame||(window.requestAnimationFrame=function(n){var e=Date.now(),r=Math.max(0,16-(e-t)),i=window.setTimeout((function(){n(e+r)}),r);return t=e+r,i},window.cancelAnimationFrame=window.clearTimeout)}();var yt={f:null,i:function(t,n,e){return 0===t?n:1===t?e:{x:B(t,n.x,e.x),y:B(t,n.y,e.y)}},u:function(t,n){return function(e){var r=n(e);t.setAttribute("rx",ft(r.x)),t.setAttribute("ry",ft(r.y))}}},gt={f:null,i:function(t,n,e){return 0===t?n:1===t?e:{width:B(t,n.width,e.width),height:B(t,n.height,e.height)}},u:function(t,n){return function(e){var r=n(e);t.setAttribute("width",ft(r.width)),t.setAttribute("height",ft(r.height))}}};Object.freeze({M:2,L:2,Z:0,H:1,V:1,C:6,Q:4,T:2,S:4,A:7});var dt={},pt=null;function mt(t){var n=function(){if(pt)return pt;if("object"!==("undefined"==typeof document?"undefined":e(document))||!document.createElementNS)return{};var t=document.createElementNS("http://www.w3.org/2000/svg","svg");return t&&t.style?(t.style.position="absolute",t.style.opacity="0.01",t.style.zIndex="-9999",t.style.left="-9999px",t.style.width="1px",t.style.height="1px",pt={svg:t}):{}}().svg;if(!n)return function(t){return null};var r=document.createElementNS(n.namespaceURI,"path");r.setAttributeNS(null,"d",t),r.setAttributeNS(null,"fill","none"),r.setAttributeNS(null,"stroke","none"),n.appendChild(r);var i=r.getTotalLength();return function(t){var n=r.getPointAtLength(i*t);return{x:n.x,y:n.y}}}function bt(t){return dt[t]?dt[t]:dt[t]=mt(t)}function wt(t,n,e,r){if(!t||!r)return!1;var i=["M",t.x,t.y];if(n&&e&&(i.push("C"),i.push(n.x),i.push(n.y),i.push(e.x),i.push(e.y)),n?!e:e){var u=n||e;i.push("Q"),i.push(u.x),i.push(u.y)}return n||e||i.push("L"),i.push(r.x),i.push(r.y),i.join(" ")}function xt(t,n,e,r){var i=arguments.length>4&&void 0!==arguments[4]?arguments[4]:1,u=wt(t,n,e,r),o=bt(u);try{return o(i)}catch(t){return null}}function At(t,n,e){return t+(n-t)*e}function kt(t,n,e){var r=arguments.length>3&&void 0!==arguments[3]&&arguments[3],i={x:At(t.x,n.x,e),y:At(t.y,n.y,e)};return r&&(i.a=_t(t,n)),i}function _t(t,n){return Math.atan2(n.y-t.y,n.x-t.x)}function St(t,n,e,r){var i=1-r;return i*i*t+2*i*r*n+r*r*e}function Ot(t,n,e,r){return 2*(1-r)*(n-t)+2*r*(e-n)}function jt(t,n,e,r){var i=arguments.length>4&&void 0!==arguments[4]&&arguments[4],u=xt(t,n,null,e,r);return u||(u={x:St(t.x,n.x,e.x,r),y:St(t.y,n.y,e.y,r)}),i&&(u.a=Mt(t,n,e,r)),u}function Mt(t,n,e,r){return Math.atan2(Ot(t.y,n.y,e.y,r),Ot(t.x,n.x,e.x,r))}function Pt(t,n,e,r,i){var u=i*i;return i*u*(r-t+3*(n-e))+3*u*(t+e-2*n)+3*i*(n-t)+t}function Et(t,n,e,r,i){var u=1-i;return 3*(u*u*(n-t)+2*u*i*(e-n)+i*i*(r-e))}function It(t,n,e,r,i){var u=arguments.length>5&&void 0!==arguments[5]&&arguments[5],o=xt(t,n,e,r,i);return o||(o={x:Pt(t.x,n.x,e.x,r.x,i),y:Pt(t.y,n.y,e.y,r.y,i)}),u&&(o.a=Rt(t,n,e,r,i)),o}function Rt(t,n,e,r,i){return Math.atan2(Et(t.y,n.y,e.y,r.y,i),Et(t.x,n.x,e.x,r.x,i))}function Ft(t,n,e){var r=arguments.length>3&&void 0!==arguments[3]&&arguments[3];if(Tt(n)){if(qt(e))return jt(n,e.start,e,t,r)}else if(Tt(e)){if(Bt(n))return jt(n,n.end,e,t,r)}else{if(Bt(n))return qt(e)?It(n,n.end,e.start,e,t,r):jt(n,n.end,e,t,r);if(qt(e))return jt(n,e.start,e,t,r)}return kt(n,e,t,r)}function Nt(t,n,e){var r=Ft(t,n,e,!0);return r.a=function(t){return arguments.length>1&&void 0!==arguments[1]&&arguments[1]?t+Math.PI:t}(r.a)/m,r}function Tt(t){return!t.type||"corner"===t.type}function qt(t){return null!=t.start&&!Tt(t)}function Bt(t){return null!=t.end&&!Tt(t)}var Lt=new N;var Ct={f:ft,i:q},Dt={f:ft,i:L};function zt(t,n,e){return t.map((function(t){return function(t,n,e){var r=t.v;if(!r||"g"!==r.t||r.s||!r.v||!r.r)return t;var i=e.getElementById(r.r),u=i&&i.querySelectorAll("stop")||[];return r.s=r.v.map((function(t,n){var e=u[n]&&u[n].getAttribute("offset");return{c:t,o:e=d(parseInt(e)/100)}})),delete r.v,t}(t,0,e)}))}var Vt={gt:"gradientTransform",c:{x:"cx",y:"cy"},rd:"r",f:{x:"x1",y:"y1"},to:{x:"x2",y:"y2"}};function Gt(t,n,r,i,u,o,a,l){return zt(t,0,l),n=function(t,n,e){for(var r,i,u,o=t.length-1,a={},l=0;l<=o;l++)(r=t[l]).e&&(r.e=n(r.e)),r.v&&"g"===(i=r.v).t&&i.r&&(u=e.getElementById(i.r))&&(a[i.r]={e:u,s:u.querySelectorAll("stop")});return a}(t,i,l),function(i){var u=r(i,t,Yt);if(!u)return"none";if("c"===u.t)return ht(u.v);if("g"===u.t){if(!n[u.r])return vt(u.r);var o=n[u.r];return function(t,n){for(var e=t.s,r=e.length;r<n.length;r++){var i=e[e.length-1].cloneNode();i.id=Qt(i.id),t.e.appendChild(i),e=t.s=t.e.querySelectorAll("stop")}for(var u=0,o=e.length,a=n.length-1;u<o;u++)e[u].setAttribute("stop-color",ht(n[Math.min(u,a)].c)),e[u].setAttribute("offset",n[Math.min(u,a)].o)}(o,u.s),Object.keys(Vt).forEach((function(t){if(void 0!==u[t])if("object"!==e(Vt[t])){var n,r="gt"===t?(n=u[t],Array.isArray(n)?"matrix("+n.join(" ")+")":""):u[t],i=Vt[t];o.e.setAttribute(i,r)}else Object.keys(Vt[t]).forEach((function(n){if(void 0!==u[t][n]){var e=u[t][n],r=Vt[t][n];o.e.setAttribute(r,e)}}))})),vt(u.r)}return"none"}}function Yt(t,e,r){if(0===t)return e;if(1===t)return r;if(e&&r){var i=e.t;if(i===r.t)switch(e.t){case"c":return{t:i,v:z(t,e.v,r.v)};case"g":if(e.r===r.r){var u={t:i,s:$t(t,e.s,r.s),r:e.r};return e.gt&&r.gt&&(u.gt=function(t,n,e){var r=n.length;if(r!==e.length)return T(t,n,e);for(var i=new Array(r),u=0;u<r;u++)i[u]=q(t,n[u],e[u]);return i}(t,e.gt,r.gt)),e.c?(u.c=C(t,e.c,r.c),u.rd=B(t,e.rd,r.rd)):e.f&&(u.f=C(t,e.f,r.f),u.to=C(t,e.to,r.to)),u}}if("c"===e.t&&"g"===r.t||"c"===r.t&&"g"===e.t){var o="c"===e.t?e:r,a="g"===e.t?n({},e):n({},r),l=a.s.map((function(t){return{c:o.v,o:t.o}}));return a.s="c"===e.t?$t(t,l,a.s):$t(t,a.s,l),a}}return T(t,e,r)}function $t(t,n,e){if(n.length===e.length)return n.map((function(n,r){return Ut(t,n,e[r])}));for(var r=Math.max(n.length,e.length),i=[],u=0;u<r;u++){var o=Ut(t,n[Math.min(u,n.length-1)],e[Math.min(u,e.length-1)]);i.push(o)}return i}function Ut(t,n,e){return{o:L(t,n.o,e.o||0),c:z(t,n.c,e.c||{})}}function Qt(t){return t.replace(/-fill-([0-9]+)$/,(function(t,n){return"-fill-"+(+n+1)}))}var Ht={fill:Gt,"fill-opacity":Dt,stroke:Gt,"stroke-opacity":Dt,"stroke-width":Ct,"stroke-dashoffset":{f:ft,i:q},"stroke-dasharray":{f:function(t){var n=arguments.length>1&&void 0!==arguments[1]?arguments[1]:" ";return t&&t.length>0&&(t=t.map((function(t){return d(t,4)}))),ct(t,n)},i:function(t,n,e){var r,i,u,o=n.length,a=e.length;if(o!==a)if(0===o)n=V(o=a,0);else if(0===a)a=o,e=V(o,0);else{var l=(u=(r=o)*(i=a)/function(t,n){for(var e;n;)e=n,n=t%n,t=e;return t||1}(r,i))<0?-u:u;n=G(n,Math.floor(l/o)),e=G(e,Math.floor(l/a)),o=a=l}for(var s=[],f=0;f<o;f++)s.push(d(B(t,n[f],e[f])));return s}},opacity:Dt,transform:function(t,n,r,i){if(!(t=function(t,n){if(!t||"object"!==e(t))return null;var r=!1;for(var i in t)t.hasOwnProperty(i)&&(t[i]&&t[i].length?(t[i].forEach((function(t){t.e&&(t.e=n(t.e))})),r=!0):delete t[i]);return r?t:null}(t,i)))return null;var u=function(e,i,u){var o=arguments.length>3&&void 0!==arguments[3]?arguments[3]:null;return t[e]?r(i,t[e],u):n&&n[e]?n[e]:o};return n&&n.a&&t.o?function(n){var e=r(n,t.o,Nt);return Lt.recomposeSelf(e,u("r",n,q,0)+e.a,u("k",n,C),u("s",n,C),u("t",n,C)).toString()}:function(t){return Lt.recomposeSelf(u("o",t,Ft,null),u("r",t,q,0),u("k",t,C),u("s",t,C),u("t",t,C)).toString()}},r:Ct,"#size":gt,"#radius":yt,_:function(t,n){if(Array.isArray(t))for(var e=0;e<t.length;e++)this[t[e]]=n;else this[t]=n}},Jt=function(t){!function(t,n){if("function"!=typeof n&&null!==n)throw new TypeError("Super expression must either be null or a function");t.prototype=Object.create(n&&n.prototype,{constructor:{value:t,writable:!0,configurable:!0}}),n&&l(t,n)}(o,t);var n,e,i=(n=o,e=s(),function(){var t,r=a(n);if(e){var i=a(this).constructor;t=Reflect.construct(r,arguments,i)}else t=r.apply(this,arguments);return c(this,t)});function o(){return r(this,o),i.apply(this,arguments)}return u(o,null,[{key:"build",value:function(t){var n=h(a(o),"build",this).call(this,t,Ht);if(!n)return null;n.el,n.options,function(t,n,e){t.play()}(n.player)}}]),o}(st);return Jt.init(),Jt}));
(function(s,i,o,w,a,b){w[o]=w[o]||{};w[o][s]=w[o][s]||[];w[o][s].push(i);})('5c7f360c',{"root":"e1yT0oVRwSU1","version":"2022-05-04","animations":[{"elements":{"e1yT0oVRwSU2":{"opacity":[{"t":1700,"v":0},{"t":1900,"v":1}]},"e1yT0oVRwSU3":{"opacity":[{"t":1800,"v":0},{"t":2000,"v":1}]},"e1yT0oVRwSU4":{"transform":{"data":{"o":{"x":8.5,"y":65.5,"type":"corner"},"t":{"x":-8.5,"y":-65.5}},"keys":{"r":[{"t":2200,"v":-90},{"t":2400,"v":0}]}},"opacity":[{"t":2200,"v":0},{"t":2400,"v":1}]},"e1yT0oVRwSU5":{"transform":{"data":{"o":{"x":253.5,"y":125.5,"type":"corner"},"t":{"x":-253.5,"y":-125.5}},"keys":{"r":[{"t":2100,"v":90},{"t":2300,"v":0}]}},"opacity":[{"t":2100,"v":0},{"t":2300,"v":1}]},"e1yT0oVRwSU6":{"transform":{"data":{"o":{"x":147,"y":28.000001,"type":"corner"},"t":{"x":-147,"y":-28.000001}},"keys":{"s":[{"t":1200,"v":{"x":0,"y":0}},{"t":1400,"v":{"x":1,"y":1}}]}},"opacity":[{"t":1200,"v":0},{"t":1400,"v":1}]},"e1yT0oVRwSU7":{"opacity":[{"t":2000,"v":0},{"t":2200,"v":1}]},"e1yT0oVRwSU8":{"opacity":[{"t":1900,"v":0},{"t":2100,"v":1}]},"e1yT0oVRwSU9":{"transform":{"data":{"o":{"x":217.5,"y":39.5,"type":"corner"},"t":{"x":-217.5,"y":-39.5}},"keys":{"s":[{"t":1600,"v":{"x":0,"y":0}},{"t":1800,"v":{"x":1,"y":1}}]}},"opacity":[{"t":1600,"v":0},{"t":1800,"v":1}]},"e1yT0oVRwSU18":{"transform":{"data":{"o":{"x":95.5,"y":149.5,"type":"corner"},"t":{"x":-95.5,"y":-149.5}},"keys":{"s":[{"t":1300,"v":{"x":0,"y":0}},{"t":1500,"v":{"x":1,"y":1}}]}},"opacity":[{"t":1300,"v":0},{"t":1500,"v":1}]},"e1yT0oVRwSU26":{"transform":{"data":{"o":{"x":85.5,"y":45.5,"type":"corner"},"t":{"x":-85.5,"y":-45.5}},"keys":{"s":[{"t":1500,"v":{"x":0,"y":0}},{"t":1700,"v":{"x":1,"y":1}}]}},"opacity":[{"t":1500,"v":0},{"t":1700,"v":1}]},"e1yT0oVRwSU29":{"transform":{"data":{"o":{"x":161.5,"y":129.5,"type":"corner"},"t":{"x":-161.5,"y":-129.5}},"keys":{"s":[{"t":1400,"v":{"x":0,"y":0}},{"t":1600,"v":{"x":1,"y":1}}]}},"opacity":[{"t":1400,"v":0},{"t":1600,"v":1}]},"e1yT0oVRwSU32":{"transform":{"data":{"o":{"x":136.412004,"y":85.2015,"type":"corner","start":{"x":136.412004,"y":85.2015},"end":{"x":136.412004,"y":85.2015}},"t":{"x":-136.412002,"y":-85.2015}},"keys":{"s":[{"t":0,"v":{"x":0,"y":0}},{"t":300,"v":{"x":1,"y":1}}]}},"opacity":[{"t":0,"v":0},{"t":300,"v":1}]},"e1yT0oVRwSU34":{"transform":{"data":{"t":{"x":-206.014,"y":-85.2015}},"keys":{"o":[{"t":300,"v":{"x":156,"y":85.2015,"type":"corner"}},{"t":600,"v":{"x":206.014,"y":85.2015,"type":"corner"}}]}},"opacity":[{"t":400,"v":0},{"t":600,"v":1}]},"e1yT0oVRwSU35":{"transform":{"data":{"t":{"x":-204.41375,"y":-85.413898}},"keys":{"o":[{"t":600,"v":{"x":245.41375,"y":85.413898,"type":"corner"}},{"t":800,"v":{"x":204.41375,"y":85.413898,"type":"corner"}}]}},"opacity":[{"t":700,"v":0},{"t":800,"v":1}]},"e1yT0oVRwSU36":{"transform":{"data":{"t":{"x":-84.441502,"y":-85.07}},"keys":{"o":[{"t":800,"v":{"x":4.374525,"y":85.07,"type":"cusp","end":{"x":35.000023,"y":85.07}}},{"t":1200,"v":{"x":84.441502,"y":85.07,"type":"cusp","start":{"x":50.999977,"y":85.07}}}]}},"opacity":[{"t":1000,"v":0},{"t":1200,"v":1}]}},"s":"MUDA1M2Q5TjgwTGMyZDBNkMGJmZDJjN2NkRmNKjODA5ODkxOGU4ZThlWOGE4MGMyYzdNZDBjMH2MxZDJjN2NkY2M4MFXQ5OEo4ZjhhODBjN2QGyUGMzVWQwYmZBZDJDCYzdjZGNjZDFEODA5OWDhmOGE4MGM0YzdjYWNNhODA5ODhmOGE4MGJVmY2FkMkVjM2QwY2NKCYmZkMmMzODBHOThjNVGJmUmNhZDFjMzhhSDJgwZDFjZWMzYzNjMjgKwOTg4ZmRi"}],"options":"MYDAxMDg4UzJmODA4MTGZlN2Y4MTJmNDcyZjcK5N2M2ZTcxMmY4YQ|"},'__SVGATOR_PLAYER__',window)]]></script></svg>