<svg width="16" height="17" viewBox="0 0 16 17" fill="none" xmlns="http://www.w3.org/2000/svg">
<g id="bx-heart.svg">
<path id="Vector" d="M8.00007 3.68832C7.27367 3.02039 6.32288 2.64969 5.33607 2.64966C4.81376 2.6502 4.29672 2.75403 3.81469 2.95517C3.33267 3.15631 2.89518 3.45079 2.5274 3.82166C0.958735 5.39699 0.959402 7.86099 2.52874 9.42966L7.41674 14.3177C7.53007 14.517 7.74874 14.6457 8.00007 14.6457C8.10327 14.6447 8.20479 14.6195 8.29649 14.5721C8.38819 14.5248 8.46751 14.4566 8.52807 14.373L13.4714 9.42966C15.0407 7.86033 15.0407 5.39699 13.4701 3.81899C13.1025 3.4488 12.6653 3.15492 12.1838 2.95425C11.7022 2.75357 11.1858 2.65006 10.6641 2.64966C9.67729 2.64982 8.72654 3.02051 8.00007 3.68832V3.68832ZM12.5274 4.76166C13.5694 5.80899 13.5701 7.44499 12.5287 8.48699L8.00007 13.0157L3.4714 8.48699C2.43007 7.44499 2.43074 5.80899 3.47007 4.76433C3.97674 4.26033 4.6394 3.98299 5.33607 3.98299C6.03274 3.98299 6.69274 4.26032 7.1954 4.76299L7.52874 5.09632C7.59059 5.15829 7.66406 5.20745 7.74494 5.24099C7.82582 5.27453 7.91251 5.29179 8.00007 5.29179C8.08762 5.29179 8.17432 5.27453 8.2552 5.24099C8.33607 5.20745 8.40954 5.15829 8.4714 5.09632L8.80474 4.76299C9.81274 3.75699 11.5207 3.75966 12.5274 4.76166V4.76166Z" fill="white"/>
</g>
</svg>
