<svg width="16" height="16" viewBox="0 0 16 16" fill="none" xmlns="http://www.w3.org/2000/svg">
<path d="M8.95089 7.0494L8.95046 1.34469C8.94637 1.09523 8.84439 0.857373 8.66653 0.68241C8.48867 0.507446 8.24917 0.409392 7.99968 0.409392C7.75019 0.409392 7.51069 0.507446 7.33283 0.68241C7.15497 0.857373 7.05299 1.09523 7.04889 1.34469L7.04932 7.0494L1.34461 7.04897C1.21975 7.04897 1.09612 7.07356 0.980763 7.12135C0.865409 7.16913 0.760595 7.23916 0.672306 7.32745C0.584018 7.41574 0.513983 7.52055 0.466202 7.63591C0.418421 7.75126 0.393828 7.8749 0.393828 7.99976C0.393828 8.12461 0.418421 8.24825 0.466202 8.36361C0.513983 8.47896 0.584018 8.58377 0.672306 8.67206C0.760595 8.76035 0.865409 8.83039 0.980763 8.87817C1.09612 8.92595 1.21975 8.95054 1.34461 8.95054L7.04911 8.95075L7.04954 14.6555C7.05363 14.9049 7.15561 15.1428 7.33347 15.3177C7.51133 15.4927 7.75083 15.5908 8.00032 15.5908C8.24981 15.5908 8.48931 15.4927 8.66717 15.3177C8.84503 15.1428 8.94701 14.9049 8.95111 14.6555L8.95089 8.95097L14.6554 8.95118C14.9076 8.95118 15.1494 8.85101 15.3277 8.6727C15.506 8.4944 15.6062 8.25256 15.6062 8.0004C15.6062 7.74823 15.506 7.5064 15.3277 7.32809C15.1494 7.14978 14.9076 7.04961 14.6554 7.04961L8.95089 7.0494Z" fill="#032E49"/>
</svg>
