<svg width="12" height="12" viewBox="0 0 12 12" fill="none" xmlns="http://www.w3.org/2000/svg">
<path d="M7.42626 6.00066L11.7047 1.72162C11.8887 1.53145 11.9906 1.27656 11.9884 1.01193C11.9863 0.747304 11.8802 0.494129 11.693 0.307001C11.5059 0.119873 11.2527 0.0137838 10.9881 0.0116107C10.7235 0.00943762 10.4686 0.111354 10.2784 0.295384L6.00002 4.57442L1.72162 0.295384C1.62798 0.201736 1.5168 0.12745 1.39444 0.0767677C1.27208 0.0260857 1.14094 9.86745e-10 1.0085 0C0.876065 -9.86744e-10 0.744923 0.0260857 0.622566 0.0767677C0.500209 0.12745 0.389032 0.201736 0.295384 0.295384C0.201736 0.389032 0.12745 0.500209 0.0767677 0.622566C0.0260857 0.744923 -9.86745e-10 0.876065 0 1.0085C9.86745e-10 1.14094 0.0260857 1.27208 0.0767677 1.39444C0.12745 1.5168 0.201736 1.62798 0.295384 1.72162L4.57378 6.00034L0.295384 10.2794C0.111354 10.4696 0.00943762 10.7244 0.0116107 10.9891C0.0137838 11.2537 0.119873 11.5069 0.307001 11.694C0.494129 11.8811 0.747304 11.9872 1.01193 11.9894C1.27656 11.9916 1.53145 11.8897 1.72162 11.7056L6.00002 7.4269L10.2784 11.7056C10.4676 11.8948 10.7241 12.001 10.9915 12.001C11.259 12.001 11.5155 11.8948 11.7047 11.7056C11.8938 11.5165 12 11.26 12 10.9925C12 10.725 11.8938 10.4685 11.7047 10.2794L7.42626 6.00066Z" fill="white"/>
</svg>
