<svg xmlns="http://www.w3.org/2000/svg" xmlns:xlink="http://www.w3.org/1999/xlink" viewBox="0 0 51 51"><defs><style>.cls-1{fill:#fff;}.cls-2{mask:url(#mask);}.cls-3,.cls-5{fill:#042548;}.cls-4{mask:url(#mask-2);}.cls-5,.cls-8{stroke:#042548;}.cls-5{stroke-miterlimit:10;}.cls-6{fill:#00f6d2;}.cls-7{fill:#fe52ff;}.cls-8{fill:none;}</style><mask id="mask" x="0.5" y="0.5" width="50" height="50" maskUnits="userSpaceOnUse"><g id="mask0_2_341" data-name="mask0 2 341"><path class="cls-1" d="M25.5,50.5a25,25,0,1,0-25-25A25,25,0,0,0,25.5,50.5Z"/></g></mask><mask id="mask-2" x="0" y="0" width="51" height="51" maskUnits="userSpaceOnUse"><g id="mask1_2_341" data-name="mask1 2 341"><path class="cls-1" d="M25.5,50.5a25,25,0,1,0-25-25A25,25,0,0,0,25.5,50.5Z"/></g></mask></defs><g id="Layer_2" data-name="Layer 2"><g id="Layer_1-2" data-name="Layer 1"><g class="cls-2"><path class="cls-3" d="M25.5,50.5a25,25,0,1,0-25-25A25,25,0,0,0,25.5,50.5Z"/></g><g class="cls-4"><path class="cls-5" d="M25.5,50.5a25,25,0,1,0-25-25A25,25,0,0,0,25.5,50.5Z"/></g><path class="cls-6" d="M19.05,35.77a2.15,2.15,0,0,0,3,0L32.51,25.36a3.07,3.07,0,0,0,.68-1,10.84,10.84,0,0,0,3,.44c2.22,0,3-1,3.19-1.56s.42-1.78-1.14-3.37l-.05,0a12.43,12.43,0,0,0-4-2.52l-.88-.33v0A2.35,2.35,0,0,0,31,14.59l-6.24-.09a3,3,0,0,0-2.2.9L12.13,25.81a2.15,2.15,0,0,0,0,3Zm8-17.54a1.78,1.78,0,0,1,3,1.51A11.89,11.89,0,0,0,32.47,21l.9.34,0-2.51.15.06a10.78,10.78,0,0,1,3.38,2.13l0,0c.75.76.83,1.25.77,1.4-.2.46-2.3.88-5.48-.45a11.78,11.78,0,0,1-2.51-1.4l-.08.09a1.79,1.79,0,0,1-2.52,0A1.77,1.77,0,0,1,27.08,18.23Z"/><path class="cls-7" d="M25.9,25.57l-2,1.92.47,2.72a.33.33,0,0,1-.13.31.3.3,0,0,1-.18.06.37.37,0,0,1-.15,0L21.5,29.26l-2.44,1.28a.31.31,0,0,1-.33,0,.33.33,0,0,1-.13-.31l.47-2.72-2-1.92a.31.31,0,0,1-.08-.33.3.3,0,0,1,.25-.21l2.73-.4,1.22-2.47a.33.33,0,0,1,.56,0L23,24.63l2.73.4a.3.3,0,0,1,.25.21.31.31,0,0,1-.08.33Z"/><path class="cls-8" d="M25.9,25.57l-2,1.92.47,2.72a.33.33,0,0,1-.13.31.3.3,0,0,1-.18.06.37.37,0,0,1-.15,0L21.5,29.26l-2.44,1.28a.31.31,0,0,1-.33,0,.33.33,0,0,1-.13-.31l.47-2.72-2-1.92a.31.31,0,0,1-.08-.33.3.3,0,0,1,.25-.21l2.73-.4,1.22-2.47a.33.33,0,0,1,.56,0L23,24.63l2.73.4a.3.3,0,0,1,.25.21.31.31,0,0,1-.08.33Z"/></g></g></svg>